<svg id="svg" xmlns="http://www.w3.org/2000/svg" xmlns:xlink="http://www.w3.org/1999/xlink" width="400" height="400" viewBox="-150, -150, 700,700"><g id="svgg"><path id="path0" d="M230.865 36.713 L 209.007 58.582 215.437 65.045 L 221.867 71.509 217.391 75.985 L 212.915 80.461 206.449 74.028 L 199.983 67.596 107.219 160.360 L 14.456 253.123 32.559 271.226 L 50.662 289.329 55.348 287.227 C 97.324 268.389,130.852 301.032,113.165 343.518 L 110.721 349.389 128.799 367.467 L 146.877 385.544 239.640 292.781 L 332.404 200.017 325.972 193.551 L 319.539 187.085 324.015 182.609 L 328.491 178.133 334.956 184.565 L 341.422 190.997 363.482 168.936 L 385.543 146.875 367.466 128.798 L 349.389 110.721 343.518 113.165 C 301.365 130.713,269.286 98.637,286.834 56.485 L 289.277 50.617 271.402 32.731 C 261.572 22.893,253.347 14.844,253.126 14.844 C 252.905 14.844,242.888 24.685,230.865 36.713 M261.518 120.106 L 257.032 124.592 244.148 111.726 L 231.264 98.860 235.735 94.341 L 240.207 89.822 253.106 102.721 L 266.004 115.619 261.518 120.106 M248.829 151.563 L 297.263 200.002 235.351 261.913 L 173.439 323.825 124.712 275.102 L 75.984 226.379 137.797 164.779 C 171.794 130.899,199.786 103.167,200.002 103.152 C 200.219 103.137,222.190 124.922,248.829 151.563 M146.874 173.829 L 94.144 226.564 133.791 266.211 L 173.438 305.858 226.365 252.930 L 279.293 200.002 239.845 160.548 C 218.148 138.848,200.218 121.094,200.001 121.094 C 199.783 121.094,175.876 144.824,146.874 173.829 M297.478 147.087 L 310.172 159.799 305.656 164.268 L 301.140 168.736 288.283 155.861 L 275.426 142.987 279.679 138.681 C 284.952 133.341,282.678 132.267,297.478 147.087 " stroke="none" fill="#000000" fill-rule="evenodd"></path></g></svg>