<svg id="svg" version="1.1" xmlns="http://www.w3.org/2000/svg" xmlns:xlink="http://www.w3.org/1999/xlink" width="1024" height="1024" viewBox="0, 0, 400,400"><g id="svgg"><path id="path0" d="M139.453 55.469 C 139.453 55.990,139.714 56.250,140.234 56.250 C 140.921 56.250,141.016 56.510,141.016 58.398 C 141.016 60.286,141.110 60.547,141.797 60.547 C 142.448 60.547,142.578 60.807,142.578 62.109 C 142.578 63.411,142.708 63.672,143.359 63.672 C 143.880 63.672,144.141 63.411,144.141 62.891 C 144.141 62.318,144.401 62.109,145.117 62.109 C 146.077 62.109,146.094 62.161,146.094 65.234 C 146.094 68.099,146.159 68.359,146.875 68.359 C 147.526 68.359,147.656 68.620,147.656 69.922 L 147.656 71.484 149.414 71.484 C 151.163 71.484,151.172 71.492,151.172 72.852 C 151.172 73.958,151.321 74.219,151.953 74.219 C 152.604 74.219,152.734 74.479,152.734 75.781 C 152.734 77.083,152.865 77.344,153.516 77.344 C 154.167 77.344,154.297 77.604,154.297 78.906 L 154.297 80.469 156.836 80.469 L 159.375 80.469 159.375 82.031 C 159.375 83.333,159.505 83.594,160.156 83.594 C 160.807 83.594,160.938 83.854,160.938 85.156 C 160.938 86.458,161.068 86.719,161.719 86.719 C 162.351 86.719,162.500 86.979,162.500 88.086 C 162.500 89.446,162.509 89.453,164.258 89.453 L 166.016 89.453 166.016 92.578 C 166.016 95.443,166.081 95.703,166.797 95.703 C 167.448 95.703,167.578 95.964,167.578 97.266 L 167.578 98.828 169.336 98.828 L 171.094 98.828 171.094 100.391 C 171.094 101.693,171.224 101.953,171.875 101.953 C 172.507 101.953,172.656 102.214,172.656 103.320 C 172.656 104.427,172.805 104.688,173.438 104.688 C 174.089 104.688,174.219 104.948,174.219 106.250 L 174.219 107.813 175.977 107.813 C 177.474 107.813,177.734 107.928,177.734 108.594 C 177.734 109.115,177.995 109.375,178.516 109.375 C 179.210 109.375,179.297 109.635,179.297 111.719 C 179.297 113.802,179.384 114.063,180.078 114.063 C 180.773 114.063,180.859 114.323,180.859 116.406 L 180.859 118.750 182.617 118.750 C 184.366 118.750,184.375 118.757,184.375 120.117 C 184.375 121.224,184.524 121.484,185.156 121.484 C 185.807 121.484,185.938 121.745,185.938 123.047 L 185.938 124.609 188.477 124.609 L 191.016 124.609 191.016 126.172 L 191.016 127.734 192.578 127.734 L 194.141 127.734 194.141 130.078 C 194.141 132.161,194.227 132.422,194.922 132.422 C 195.443 132.422,195.703 132.682,195.703 133.203 C 195.703 133.776,195.964 133.984,196.680 133.984 C 197.535 133.984,197.656 134.154,197.656 135.352 C 197.656 136.458,197.805 136.719,198.438 136.719 C 199.132 136.719,199.219 136.979,199.219 139.063 L 199.219 141.406 201.758 141.406 C 204.036 141.406,204.297 141.486,204.297 142.188 C 204.297 142.760,204.036 142.969,203.320 142.969 C 202.441 142.969,202.344 143.125,202.344 144.531 C 202.344 145.938,202.441 146.094,203.320 146.094 C 204.036 146.094,204.297 146.302,204.297 146.875 C 204.297 147.448,204.036 147.656,203.320 147.656 C 202.604 147.656,202.344 147.865,202.344 148.438 C 202.344 149.103,202.604 149.219,204.102 149.219 C 205.599 149.219,205.859 149.334,205.859 150.000 C 205.859 150.521,205.599 150.781,205.078 150.781 C 204.644 150.781,204.297 151.042,204.297 151.367 C 204.297 151.790,204.731 151.953,205.859 151.953 C 207.161 151.953,207.422 152.083,207.422 152.734 C 207.422 153.255,207.161 153.516,206.641 153.516 C 206.120 153.516,205.859 153.776,205.859 154.297 C 205.859 154.998,206.120 155.078,208.398 155.078 L 210.938 155.078 210.938 156.641 C 210.938 157.943,211.068 158.203,211.719 158.203 C 212.413 158.203,212.500 158.464,212.500 160.547 C 212.500 162.630,212.587 162.891,213.281 162.891 C 213.802 162.891,214.063 162.630,214.063 162.109 C 214.063 161.536,214.323 161.328,215.039 161.328 C 215.918 161.328,216.016 161.484,216.016 162.891 L 216.016 164.453 217.578 164.453 L 219.141 164.453 219.141 167.383 L 219.141 170.313 220.898 170.313 L 222.656 170.313 222.656 171.875 C 222.656 173.177,222.786 173.438,223.438 173.438 C 224.089 173.438,224.219 173.698,224.219 175.000 C 224.219 176.302,224.349 176.563,225.000 176.563 C 225.651 176.563,225.781 176.823,225.781 178.125 L 225.781 179.688 227.539 179.688 L 229.297 179.688 229.297 182.617 C 229.297 185.286,229.366 185.547,230.078 185.547 C 230.729 185.547,230.859 185.807,230.859 187.109 C 230.859 188.411,230.990 188.672,231.641 188.672 C 232.161 188.672,232.422 188.411,232.422 187.891 C 232.422 187.225,232.682 187.109,234.180 187.109 C 235.677 187.109,235.938 187.225,235.938 187.891 C 235.938 188.464,235.677 188.672,234.961 188.672 C 234.245 188.672,233.984 188.880,233.984 189.453 C 233.984 190.026,234.245 190.234,234.961 190.234 C 235.677 190.234,235.938 190.443,235.938 191.016 C 235.938 191.536,236.198 191.797,236.719 191.797 C 237.240 191.797,237.500 192.057,237.500 192.578 C 237.500 193.099,237.240 193.359,236.719 193.359 C 236.068 193.359,235.938 193.620,235.938 194.922 L 235.938 196.484 237.500 196.484 C 239.025 196.484,239.063 196.517,239.063 197.852 C 239.063 199.212,239.072 199.219,240.820 199.219 C 242.318 199.219,242.578 199.334,242.578 200.000 C 242.578 200.573,242.318 200.781,241.602 200.781 C 240.723 200.781,240.625 200.938,240.625 202.344 C 240.625 203.750,240.723 203.906,241.602 203.906 C 242.318 203.906,242.578 203.698,242.578 203.125 C 242.578 202.474,242.839 202.344,244.141 202.344 L 245.703 202.344 245.703 207.031 L 245.703 211.719 244.141 211.719 C 242.839 211.719,242.578 211.589,242.578 210.938 C 242.578 210.365,242.318 210.156,241.602 210.156 C 240.746 210.156,240.625 210.326,240.625 211.523 C 240.625 212.721,240.746 212.891,241.602 212.891 C 242.318 212.891,242.578 213.099,242.578 213.672 C 242.578 214.337,242.318 214.453,240.820 214.453 C 239.323 214.453,239.063 214.569,239.063 215.234 C 239.063 215.755,238.802 216.016,238.281 216.016 C 237.760 216.016,237.500 216.276,237.500 216.797 C 237.500 217.318,237.240 217.578,236.719 217.578 C 236.068 217.578,235.938 217.839,235.938 219.141 C 235.938 220.443,236.068 220.703,236.719 220.703 C 237.240 220.703,237.500 220.964,237.500 221.484 C 237.500 222.005,237.240 222.266,236.719 222.266 C 236.198 222.266,235.938 222.526,235.938 223.047 C 235.938 223.620,235.677 223.828,234.961 223.828 C 234.245 223.828,233.984 224.036,233.984 224.609 C 233.984 225.182,234.245 225.391,234.961 225.391 C 235.677 225.391,235.938 225.599,235.938 226.172 C 235.938 226.837,235.677 226.953,234.180 226.953 C 232.682 226.953,232.422 226.837,232.422 226.172 C 232.422 225.651,232.161 225.391,231.641 225.391 C 231.008 225.391,230.859 225.651,230.859 226.758 C 230.859 227.865,230.711 228.125,230.078 228.125 C 229.362 228.125,229.297 228.385,229.297 231.250 L 229.297 234.375 227.539 234.375 L 225.781 234.375 225.781 235.938 C 225.781 237.240,225.651 237.500,225.000 237.500 C 224.349 237.500,224.219 237.760,224.219 239.063 C 224.219 240.365,224.089 240.625,223.438 240.625 C 222.805 240.625,222.656 240.885,222.656 241.992 C 222.656 243.352,222.647 243.359,220.898 243.359 L 219.141 243.359 219.141 246.484 L 219.141 249.609 217.578 249.609 L 216.016 249.609 216.016 251.172 C 216.016 252.578,215.918 252.734,215.039 252.734 C 214.323 252.734,214.063 252.526,214.063 251.953 C 214.063 251.432,213.802 251.172,213.281 251.172 C 212.587 251.172,212.500 251.432,212.500 253.516 C 212.500 255.599,212.413 255.859,211.719 255.859 C 211.068 255.859,210.938 256.120,210.938 257.422 L 210.938 258.984 208.398 258.984 C 206.402 258.984,205.859 259.110,205.859 259.570 C 205.859 259.896,206.207 260.156,206.641 260.156 C 207.161 260.156,207.422 260.417,207.422 260.938 C 207.422 261.589,207.161 261.719,205.859 261.719 C 204.557 261.719,204.297 261.849,204.297 262.500 C 204.297 263.021,204.557 263.281,205.078 263.281 C 205.599 263.281,205.859 263.542,205.859 264.063 C 205.859 264.728,205.599 264.844,204.102 264.844 C 202.604 264.844,202.344 264.959,202.344 265.625 C 202.344 266.198,202.604 266.406,203.320 266.406 C 204.036 266.406,204.297 266.615,204.297 267.188 C 204.297 267.760,204.036 267.969,203.320 267.969 C 202.441 267.969,202.344 268.125,202.344 269.531 C 202.344 270.938,202.441 271.094,203.320 271.094 C 204.036 271.094,204.297 271.302,204.297 271.875 C 204.297 272.576,204.036 272.656,201.758 272.656 L 199.219 272.656 199.219 274.805 C 199.219 276.693,199.124 276.953,198.438 276.953 C 197.786 276.953,197.656 277.214,197.656 278.516 C 197.656 279.922,197.559 280.078,196.680 280.078 C 195.964 280.078,195.703 280.286,195.703 280.859 C 195.703 281.380,195.443 281.641,194.922 281.641 C 194.227 281.641,194.141 281.901,194.141 283.984 L 194.141 286.328 192.578 286.328 L 191.016 286.328 191.016 287.891 L 191.016 289.453 188.477 289.453 L 185.938 289.453 185.938 290.820 C 185.938 291.927,185.789 292.188,185.156 292.188 C 184.505 292.188,184.375 292.448,184.375 293.750 L 184.375 295.313 182.617 295.313 L 180.859 295.313 180.859 297.656 C 180.859 299.740,180.773 300.000,180.078 300.000 C 179.384 300.000,179.297 300.260,179.297 302.344 C 179.297 304.427,179.210 304.688,178.516 304.688 C 178.082 304.688,177.734 304.948,177.734 305.273 C 177.734 305.707,177.279 305.859,175.977 305.859 L 174.219 305.859 174.219 307.422 C 174.219 308.724,174.089 308.984,173.438 308.984 C 172.786 308.984,172.656 309.245,172.656 310.547 C 172.656 311.849,172.526 312.109,171.875 312.109 C 171.224 312.109,171.094 312.370,171.094 313.672 L 171.094 315.234 169.336 315.234 L 167.578 315.234 167.578 316.797 C 167.578 318.099,167.448 318.359,166.797 318.359 C 166.085 318.359,166.016 318.620,166.016 321.289 L 166.016 324.219 164.258 324.219 L 162.500 324.219 162.500 325.781 C 162.500 327.083,162.370 327.344,161.719 327.344 C 161.068 327.344,160.938 327.604,160.938 328.906 C 160.938 330.208,160.807 330.469,160.156 330.469 C 159.505 330.469,159.375 330.729,159.375 332.031 L 159.375 333.594 156.836 333.594 L 154.297 333.594 154.297 334.961 C 154.297 336.068,154.148 336.328,153.516 336.328 C 152.865 336.328,152.734 336.589,152.734 337.891 C 152.734 339.193,152.604 339.453,151.953 339.453 C 151.302 339.453,151.172 339.714,151.172 341.016 L 151.172 342.578 149.414 342.578 L 147.656 342.578 147.656 344.141 C 147.656 345.443,147.526 345.703,146.875 345.703 C 146.163 345.703,146.094 345.964,146.094 348.633 C 146.094 351.497,146.072 351.563,145.117 351.563 C 144.510 351.563,144.141 351.341,144.141 350.977 C 144.141 350.651,143.793 350.391,143.359 350.391 C 142.727 350.391,142.578 350.651,142.578 351.758 C 142.578 352.865,142.429 353.125,141.797 353.125 C 141.102 353.125,141.016 353.385,141.016 355.469 C 141.016 357.552,140.929 357.813,140.234 357.813 C 139.714 357.813,139.453 358.073,139.453 358.594 C 139.453 359.372,139.714 359.375,199.219 359.375 L 258.984 359.375 258.984 357.031 C 258.984 354.948,259.071 354.688,259.766 354.688 C 260.417 354.688,260.547 354.427,260.547 353.125 C 260.547 351.719,260.645 351.563,261.523 351.563 C 262.379 351.563,262.500 351.393,262.500 350.195 C 262.500 348.861,262.537 348.828,264.063 348.828 L 265.625 348.828 265.625 346.484 C 265.625 344.401,265.712 344.141,266.406 344.141 C 267.057 344.141,267.188 343.880,267.188 342.578 L 267.188 341.016 268.945 341.016 L 270.703 341.016 270.703 339.453 C 270.703 338.151,270.833 337.891,271.484 337.891 C 272.117 337.891,272.266 337.630,272.266 336.523 C 272.266 335.326,272.387 335.156,273.242 335.156 C 274.121 335.156,274.219 335.000,274.219 333.594 C 274.219 332.292,274.349 332.031,275.000 332.031 C 275.521 332.031,275.781 331.771,275.781 331.250 C 275.781 330.729,276.042 330.469,276.563 330.469 C 277.214 330.469,277.344 330.208,277.344 328.906 C 277.344 327.604,277.474 327.344,278.125 327.344 C 278.646 327.344,278.906 327.604,278.906 328.125 C 278.906 328.698,279.167 328.906,279.883 328.906 C 280.599 328.906,280.859 328.698,280.859 328.125 C 280.859 327.552,280.599 327.344,279.883 327.344 C 279.004 327.344,278.906 327.188,278.906 325.781 L 278.906 324.219 280.664 324.219 C 282.161 324.219,282.422 324.103,282.422 323.438 C 282.422 322.917,282.682 322.656,283.203 322.656 C 283.724 322.656,283.984 322.396,283.984 321.875 C 283.984 321.354,284.245 321.094,284.766 321.094 C 285.452 321.094,285.547 320.833,285.547 318.945 C 285.547 316.914,285.600 316.797,286.523 316.797 C 287.402 316.797,287.500 316.641,287.500 315.234 C 287.500 313.932,287.630 313.672,288.281 313.672 C 288.932 313.672,289.063 313.411,289.063 312.109 L 289.063 310.547 290.625 310.547 L 292.188 310.547 292.188 308.984 C 292.188 307.578,292.285 307.422,293.164 307.422 C 294.020 307.422,294.141 307.253,294.141 306.055 C 294.141 304.720,294.178 304.688,295.703 304.688 L 297.266 304.688 297.266 303.125 C 297.266 301.823,297.396 301.563,298.047 301.563 C 298.698 301.563,298.828 301.302,298.828 300.000 C 298.828 298.594,298.926 298.438,299.805 298.438 C 300.684 298.438,300.781 298.281,300.781 296.875 C 300.781 295.469,300.684 295.313,299.805 295.313 C 299.089 295.313,298.828 295.104,298.828 294.531 C 298.828 293.958,299.089 293.750,299.805 293.750 C 300.521 293.750,300.781 293.542,300.781 292.969 C 300.781 292.448,301.042 292.188,301.563 292.188 C 302.083 292.188,302.344 292.448,302.344 292.969 C 302.344 293.490,302.604 293.750,303.125 293.750 C 303.776 293.750,303.906 293.490,303.906 292.188 C 303.906 290.885,304.036 290.625,304.688 290.625 C 305.122 290.625,305.469 290.365,305.469 290.039 C 305.469 289.714,305.122 289.453,304.688 289.453 C 304.167 289.453,303.906 289.193,303.906 288.672 C 303.906 288.151,304.167 287.891,304.688 287.891 C 305.208 287.891,305.469 287.630,305.469 287.109 C 305.469 286.536,305.729 286.328,306.445 286.328 C 307.161 286.328,307.422 286.120,307.422 285.547 C 307.422 284.896,307.682 284.766,308.984 284.766 L 310.547 284.766 310.547 282.422 C 310.547 280.339,310.634 280.078,311.328 280.078 C 311.979 280.078,312.109 279.818,312.109 278.516 L 312.109 276.953 313.867 276.953 C 315.616 276.953,315.625 276.946,315.625 275.586 C 315.625 274.479,315.774 274.219,316.406 274.219 C 317.057 274.219,317.188 273.958,317.188 272.656 C 317.188 271.354,317.318 271.094,317.969 271.094 C 318.663 271.094,318.750 270.833,318.750 268.750 L 318.750 266.406 321.289 266.406 L 323.828 266.406 323.828 263.281 L 323.828 260.156 325.586 260.156 C 327.334 260.156,327.344 260.149,327.344 258.789 C 327.344 257.454,327.381 257.422,328.906 257.422 L 330.469 257.422 330.469 255.859 C 330.469 254.453,330.566 254.297,331.445 254.297 C 332.324 254.297,332.422 254.141,332.422 252.734 L 332.422 251.172 333.984 251.172 L 335.547 251.172 335.547 249.609 C 335.547 248.307,335.677 248.047,336.328 248.047 C 337.040 248.047,337.109 247.786,337.109 245.117 C 337.109 242.253,337.131 242.188,338.086 242.188 C 338.965 242.188,339.063 242.031,339.063 240.625 L 339.063 239.063 340.625 239.063 L 342.188 239.063 342.188 237.500 C 342.188 236.198,342.318 235.938,342.969 235.938 C 343.620 235.938,343.750 235.677,343.750 234.375 C 343.750 232.969,343.848 232.813,344.727 232.813 C 345.605 232.813,345.703 232.656,345.703 231.250 L 345.703 229.688 347.266 229.688 C 348.791 229.688,348.828 229.655,348.828 228.320 C 348.828 227.214,348.977 226.953,349.609 226.953 C 350.260 226.953,350.391 226.693,350.391 225.391 L 350.391 223.828 352.148 223.828 L 353.906 223.828 353.906 222.266 C 353.906 220.964,354.036 220.703,354.688 220.703 C 355.382 220.703,355.469 220.443,355.469 218.359 C 355.469 216.276,355.556 216.016,356.250 216.016 C 356.901 216.016,357.031 215.755,357.031 214.453 L 357.031 212.891 358.789 212.891 L 360.547 212.891 360.547 210.742 L 360.547 208.594 362.109 208.594 L 363.672 208.594 363.672 207.031 L 363.672 205.469 362.109 205.469 L 360.547 205.469 360.547 203.125 L 360.547 200.781 358.789 200.781 L 357.031 200.781 357.031 199.219 C 357.031 197.917,356.901 197.656,356.250 197.656 C 355.563 197.656,355.469 197.396,355.469 195.508 C 355.469 193.620,355.374 193.359,354.688 193.359 C 354.036 193.359,353.906 193.099,353.906 191.797 L 353.906 190.234 352.148 190.234 L 350.391 190.234 350.391 188.672 C 350.391 187.370,350.260 187.109,349.609 187.109 C 348.958 187.109,348.828 186.849,348.828 185.547 L 348.828 183.984 347.266 183.984 C 345.740 183.984,345.703 183.952,345.703 182.617 C 345.703 181.419,345.582 181.250,344.727 181.250 C 343.848 181.250,343.750 181.094,343.750 179.688 C 343.750 178.385,343.620 178.125,342.969 178.125 C 342.318 178.125,342.188 177.865,342.188 176.563 L 342.188 175.000 340.625 175.000 L 339.063 175.000 339.063 173.438 C 339.063 172.031,338.965 171.875,338.086 171.875 C 337.131 171.875,337.109 171.810,337.109 168.945 C 337.109 166.276,337.040 166.016,336.328 166.016 C 335.677 166.016,335.547 165.755,335.547 164.453 L 335.547 162.891 333.984 162.891 L 332.422 162.891 332.422 161.328 C 332.422 159.922,332.324 159.766,331.445 159.766 C 330.566 159.766,330.469 159.609,330.469 158.203 L 330.469 156.641 328.906 156.641 L 327.344 156.641 327.344 155.078 L 327.344 153.516 325.586 153.516 L 323.828 153.516 323.828 151.367 C 323.828 149.479,323.733 149.219,323.047 149.219 C 322.526 149.219,322.266 148.958,322.266 148.438 C 322.266 147.772,322.005 147.656,320.508 147.656 L 318.750 147.656 318.750 145.313 C 318.750 143.229,318.663 142.969,317.969 142.969 C 317.318 142.969,317.188 142.708,317.188 141.406 C 317.188 140.104,317.057 139.844,316.406 139.844 C 315.755 139.844,315.625 139.583,315.625 138.281 L 315.625 136.719 313.867 136.719 C 312.119 136.719,312.109 136.712,312.109 135.352 C 312.109 134.245,311.961 133.984,311.328 133.984 C 310.677 133.984,310.547 133.724,310.547 132.422 L 310.547 130.859 308.984 130.859 L 307.422 130.859 307.422 129.297 C 307.422 127.891,307.324 127.734,306.445 127.734 C 305.729 127.734,305.469 127.526,305.469 126.953 C 305.469 126.432,305.208 126.172,304.688 126.172 C 304.167 126.172,303.906 125.911,303.906 125.391 C 303.906 124.870,304.167 124.609,304.688 124.609 C 305.208 124.609,305.469 124.349,305.469 123.828 C 305.469 123.307,305.208 123.047,304.688 123.047 C 304.036 123.047,303.906 122.786,303.906 121.484 C 303.906 120.182,303.776 119.922,303.125 119.922 C 302.604 119.922,302.344 120.182,302.344 120.703 C 302.344 121.224,302.083 121.484,301.563 121.484 C 301.042 121.484,300.781 121.224,300.781 120.703 C 300.781 120.130,300.521 119.922,299.805 119.922 C 299.197 119.922,298.828 119.701,298.828 119.336 C 298.828 118.971,299.197 118.750,299.805 118.750 C 300.684 118.750,300.781 118.594,300.781 117.188 C 300.781 115.781,300.684 115.625,299.805 115.625 C 298.926 115.625,298.828 115.469,298.828 114.063 C 298.828 112.760,298.698 112.500,298.047 112.500 C 297.396 112.500,297.266 112.240,297.266 110.938 L 297.266 109.375 295.703 109.375 L 294.141 109.375 294.141 107.813 C 294.141 106.406,294.043 106.250,293.164 106.250 C 292.308 106.250,292.188 106.081,292.188 104.883 C 292.188 103.548,292.150 103.516,290.625 103.516 L 289.063 103.516 289.063 101.953 C 289.063 100.651,288.932 100.391,288.281 100.391 C 287.630 100.391,287.500 100.130,287.500 98.828 C 287.500 97.422,287.402 97.266,286.523 97.266 C 285.590 97.266,285.547 97.161,285.547 94.922 C 285.547 92.839,285.460 92.578,284.766 92.578 C 284.245 92.578,283.984 92.318,283.984 91.797 C 283.984 91.276,283.724 91.016,283.203 91.016 C 282.682 91.016,282.422 90.755,282.422 90.234 C 282.422 89.569,282.161 89.453,280.664 89.453 C 278.916 89.453,278.906 89.446,278.906 88.086 C 278.906 86.888,279.027 86.719,279.883 86.719 C 280.599 86.719,280.859 86.510,280.859 85.938 C 280.859 85.365,280.599 85.156,279.883 85.156 C 279.167 85.156,278.906 85.365,278.906 85.938 C 278.906 86.458,278.646 86.719,278.125 86.719 C 277.474 86.719,277.344 86.458,277.344 85.156 C 277.344 83.854,277.214 83.594,276.563 83.594 C 276.042 83.594,275.781 83.333,275.781 82.813 C 275.781 82.292,275.521 82.031,275.000 82.031 C 274.349 82.031,274.219 81.771,274.219 80.469 C 274.219 79.063,274.121 78.906,273.242 78.906 C 272.363 78.906,272.266 78.750,272.266 77.344 C 272.266 76.042,272.135 75.781,271.484 75.781 C 270.852 75.781,270.703 75.521,270.703 74.414 C 270.703 73.054,270.694 73.047,268.945 73.047 L 267.188 73.047 267.188 71.484 C 267.188 70.182,267.057 69.922,266.406 69.922 C 265.712 69.922,265.625 69.661,265.625 67.578 L 265.625 65.234 264.063 65.234 L 262.500 65.234 262.500 63.672 C 262.500 62.266,262.402 62.109,261.523 62.109 C 260.645 62.109,260.547 61.953,260.547 60.547 C 260.547 59.245,260.417 58.984,259.766 58.984 C 259.079 58.984,258.984 58.724,258.984 56.836 L 258.984 54.688 199.219 54.688 C 139.714 54.688,139.453 54.691,139.453 55.469 M31.250 151.367 C 31.250 151.693,31.597 151.953,32.031 151.953 C 32.552 151.953,32.813 152.214,32.813 152.734 C 32.813 153.255,32.552 153.516,32.031 153.516 C 31.254 153.516,31.250 153.776,31.250 209.961 L 31.250 266.406 38.672 266.406 L 46.094 266.406 46.094 268.750 C 46.094 270.990,46.137 271.094,47.070 271.094 C 47.949 271.094,48.047 270.938,48.047 269.531 L 48.047 267.969 49.609 267.969 L 51.172 267.969 51.172 269.531 L 51.172 271.094 52.930 271.094 L 54.688 271.094 54.688 269.531 L 54.688 267.969 56.250 267.969 C 57.552 267.969,57.813 267.839,57.813 267.188 C 57.813 266.428,58.073 266.406,66.992 266.406 L 76.172 266.406 76.172 264.844 L 76.172 263.281 79.492 263.281 L 82.813 263.281 82.813 261.719 L 82.813 260.156 85.352 260.156 L 87.891 260.156 87.891 258.789 L 87.891 257.422 90.430 257.422 L 92.969 257.422 92.969 255.078 C 92.969 252.995,93.056 252.734,93.750 252.734 C 94.271 252.734,94.531 252.474,94.531 251.953 C 94.531 251.432,94.792 251.172,95.313 251.172 C 95.964 251.172,96.094 250.911,96.094 249.609 L 96.094 248.047 97.852 248.047 L 99.609 248.047 99.609 245.117 L 99.609 242.188 101.172 242.188 C 102.474 242.188,102.734 242.057,102.734 241.406 C 102.734 240.885,102.474 240.625,101.953 240.625 C 101.259 240.625,101.172 240.365,101.172 238.281 L 101.172 235.938 102.734 235.938 L 104.297 235.938 104.297 231.445 L 104.297 226.953 106.055 226.953 C 107.552 226.953,107.813 226.837,107.813 226.172 C 107.813 225.651,107.552 225.391,107.031 225.391 C 106.261 225.391,106.250 225.130,106.250 206.250 L 106.250 187.109 105.273 187.109 C 104.319 187.109,104.297 187.044,104.297 184.180 C 104.297 181.510,104.227 181.250,103.516 181.250 C 102.995 181.250,102.734 180.990,102.734 180.469 C 102.734 179.948,102.474 179.688,101.953 179.688 C 101.259 179.688,101.172 179.427,101.172 177.344 C 101.172 175.260,101.085 175.000,100.391 175.000 C 99.655 175.000,99.609 174.740,99.609 170.508 L 99.609 166.016 97.852 166.016 L 96.094 166.016 96.094 164.453 L 96.094 162.891 94.531 162.891 L 92.969 162.891 92.969 161.328 L 92.969 159.766 91.211 159.766 L 89.453 159.766 89.453 158.203 L 89.453 156.641 87.695 156.641 L 85.938 156.641 85.938 155.078 L 85.938 153.516 83.594 153.516 C 81.510 153.516,81.250 153.602,81.250 154.297 C 81.250 154.870,80.990 155.078,80.273 155.078 C 79.557 155.078,79.297 154.870,79.297 154.297 C 79.297 153.776,79.036 153.516,78.516 153.516 C 77.995 153.516,77.734 153.255,77.734 152.734 C 77.734 152.214,77.474 151.953,76.953 151.953 C 76.519 151.953,76.172 151.693,76.172 151.367 C 76.172 150.857,74.349 150.781,62.109 150.781 C 49.870 150.781,48.047 150.857,48.047 151.367 C 48.047 151.732,47.678 151.953,47.070 151.953 C 46.463 151.953,46.094 151.732,46.094 151.367 C 46.094 150.867,45.009 150.781,38.672 150.781 C 32.335 150.781,31.250 150.867,31.250 151.367 M117.578 151.367 C 117.578 151.732,117.947 151.953,118.555 151.953 C 119.271 151.953,119.531 152.161,119.531 152.734 C 119.531 153.307,119.271 153.516,118.555 153.516 L 117.578 153.516 117.578 209.961 L 117.578 266.406 128.516 266.406 L 139.453 266.406 139.453 248.047 L 139.453 229.688 146.094 229.688 C 152.474 229.688,152.734 229.657,152.734 228.906 C 152.734 228.385,152.474 228.125,151.953 228.125 C 151.519 228.125,151.172 227.865,151.172 227.539 C 151.172 227.041,152.170 226.953,157.813 226.953 L 164.453 226.953 164.453 225.391 L 164.453 223.828 166.797 223.828 L 169.141 223.828 169.141 222.266 L 169.141 220.703 170.898 220.703 L 172.656 220.703 172.656 218.359 L 172.656 216.016 174.219 216.016 L 175.781 216.016 175.781 214.453 C 175.781 213.047,175.879 212.891,176.758 212.891 C 177.731 212.891,177.734 212.878,177.734 209.180 C 177.734 205.729,177.789 205.469,178.516 205.469 C 179.267 205.469,179.297 205.208,179.297 198.633 L 179.297 191.797 180.859 191.797 L 182.422 191.797 182.422 189.453 L 182.422 187.109 180.859 187.109 L 179.297 187.109 179.297 185.547 C 179.297 184.245,179.427 183.984,180.078 183.984 C 180.599 183.984,180.859 184.245,180.859 184.766 C 180.859 185.286,181.120 185.547,181.641 185.547 C 182.327 185.547,182.422 185.286,182.422 183.398 L 182.422 181.250 180.859 181.250 L 179.297 181.250 179.297 176.563 C 179.297 172.135,179.253 171.875,178.516 171.875 C 177.804 171.875,177.734 171.615,177.734 168.945 C 177.734 166.081,177.713 166.016,176.758 166.016 C 175.798 166.016,175.781 165.964,175.781 162.891 L 175.781 159.766 174.219 159.766 C 172.917 159.766,172.656 159.635,172.656 158.984 C 172.656 158.464,172.396 158.203,171.875 158.203 C 171.181 158.203,171.094 157.943,171.094 155.859 L 171.094 153.516 167.773 153.516 L 164.453 153.516 164.453 152.148 L 164.453 150.781 149.414 150.781 C 136.306 150.781,134.375 150.857,134.375 151.367 C 134.375 151.693,134.028 151.953,133.594 151.953 C 133.160 151.953,132.813 151.693,132.813 151.367 C 132.813 150.866,131.706 150.781,125.195 150.781 C 118.685 150.781,117.578 150.866,117.578 151.367 M61.328 174.219 C 61.328 174.740,61.589 175.000,62.109 175.000 C 62.630 175.000,62.891 175.260,62.891 175.781 C 62.891 176.501,63.151 176.563,66.211 176.563 C 69.271 176.563,69.531 176.501,69.531 175.781 C 69.531 175.260,69.792 175.000,70.313 175.000 C 70.833 175.000,71.094 175.260,71.094 175.781 C 71.094 176.302,70.833 176.563,70.313 176.563 C 69.792 176.563,69.531 176.823,69.531 177.344 C 69.531 177.865,69.792 178.125,70.313 178.125 C 70.833 178.125,71.094 178.385,71.094 178.906 C 71.094 179.607,71.354 179.688,73.633 179.688 L 76.172 179.688 76.172 181.055 C 76.172 182.389,76.209 182.422,77.734 182.422 C 79.036 182.422,79.297 182.552,79.297 183.203 C 79.297 183.724,79.036 183.984,78.516 183.984 C 77.995 183.984,77.734 184.245,77.734 184.766 C 77.734 185.286,77.995 185.547,78.516 185.547 C 79.167 185.547,79.297 185.807,79.297 187.109 L 79.297 188.672 81.055 188.672 C 82.552 188.672,82.813 188.788,82.813 189.453 C 82.813 190.119,82.552 190.234,81.055 190.234 C 79.557 190.234,79.297 190.350,79.297 191.016 C 79.297 191.681,79.557 191.797,81.055 191.797 L 82.813 191.797 82.813 207.031 C 82.813 222.005,82.799 222.266,82.031 222.266 C 81.510 222.266,81.250 222.005,81.250 221.484 C 81.250 220.911,80.990 220.703,80.273 220.703 C 79.557 220.703,79.297 220.911,79.297 221.484 C 79.297 222.005,79.036 222.266,78.516 222.266 C 77.995 222.266,77.734 222.526,77.734 223.047 C 77.734 223.568,77.995 223.828,78.516 223.828 C 79.242 223.828,79.297 224.089,79.297 227.539 C 79.297 230.990,79.242 231.250,78.516 231.250 C 77.865 231.250,77.734 231.510,77.734 232.813 C 77.734 234.115,77.604 234.375,76.953 234.375 C 76.302 234.375,76.172 234.635,76.172 235.938 L 76.172 237.500 73.633 237.500 L 71.094 237.500 71.094 239.844 L 71.094 242.188 69.531 242.188 C 68.229 242.188,67.969 242.057,67.969 241.406 C 67.969 240.741,67.708 240.625,66.211 240.625 C 64.714 240.625,64.453 240.741,64.453 241.406 C 64.453 241.927,64.193 242.188,63.672 242.188 C 63.151 242.188,62.891 241.927,62.891 241.406 C 62.891 240.741,62.630 240.625,61.133 240.625 C 59.384 240.625,59.375 240.632,59.375 241.992 C 59.375 243.099,59.226 243.359,58.594 243.359 C 57.961 243.359,57.813 243.099,57.813 241.992 C 57.813 240.885,57.664 240.625,57.031 240.625 C 56.510 240.625,56.250 240.885,56.250 241.406 C 56.250 241.927,55.990 242.188,55.469 242.188 C 54.694 242.188,54.688 241.927,54.688 208.594 C 54.688 175.260,54.694 175.000,55.469 175.000 C 55.990 175.000,56.250 174.740,56.250 174.219 C 56.250 173.518,56.510 173.438,58.789 173.438 C 61.068 173.438,61.328 173.518,61.328 174.219 M149.219 174.219 C 149.219 174.740,148.958 175.000,148.438 175.000 C 147.917 175.000,147.656 175.260,147.656 175.781 C 147.656 176.513,147.917 176.563,151.758 176.563 C 155.599 176.563,155.859 176.612,155.859 177.344 C 155.859 177.865,155.599 178.125,155.078 178.125 C 154.557 178.125,154.297 178.385,154.297 178.906 C 154.297 179.572,154.557 179.688,156.055 179.688 C 157.552 179.688,157.813 179.572,157.813 178.906 C 157.813 178.385,158.073 178.125,158.594 178.125 C 159.354 178.125,159.375 178.385,159.375 187.891 L 159.375 197.656 156.055 197.656 L 152.734 197.656 152.734 199.219 L 152.734 200.781 149.414 200.781 L 146.094 200.781 146.094 203.125 L 146.094 205.469 144.336 205.469 C 142.839 205.469,142.578 205.353,142.578 204.688 C 142.578 204.167,142.318 203.906,141.797 203.906 C 141.146 203.906,141.016 203.646,141.016 202.344 C 141.016 201.042,140.885 200.781,140.234 200.781 C 139.470 200.781,139.453 200.521,139.453 188.672 C 139.453 176.823,139.470 176.563,140.234 176.563 C 140.755 176.563,141.016 176.302,141.016 175.781 C 141.016 175.260,140.755 175.000,140.234 175.000 C 139.714 175.000,139.453 174.740,139.453 174.219 C 139.453 173.479,139.714 173.438,144.336 173.438 C 148.958 173.438,149.219 173.479,149.219 174.219 M57.813 175.781 C 57.813 176.447,58.073 176.563,59.570 176.563 C 61.068 176.563,61.328 176.447,61.328 175.781 C 61.328 175.116,61.068 175.000,59.570 175.000 C 58.073 175.000,57.813 175.116,57.813 175.781 M146.094 227.539 C 146.094 227.973,145.638 228.125,144.336 228.125 C 143.034 228.125,142.578 227.973,142.578 227.539 C 142.578 227.105,143.034 226.953,144.336 226.953 C 145.638 226.953,146.094 227.105,146.094 227.539 M102.734 233.594 C 102.734 234.115,102.474 234.375,101.953 234.375 C 101.432 234.375,101.172 234.115,101.172 233.594 C 101.172 233.073,101.432 232.813,101.953 232.813 C 102.474 232.813,102.734 233.073,102.734 233.594 M97.656 241.406 C 97.656 241.927,97.396 242.188,96.875 242.188 C 96.354 242.188,96.094 241.927,96.094 241.406 C 96.094 240.885,96.354 240.625,96.875 240.625 C 97.396 240.625,97.656 240.885,97.656 241.406 M91.016 255.078 C 91.016 255.599,90.755 255.859,90.234 255.859 C 89.714 255.859,89.453 255.599,89.453 255.078 C 89.453 254.557,89.714 254.297,90.234 254.297 C 90.755 254.297,91.016 254.557,91.016 255.078 M322.266 264.063 C 322.266 264.583,322.005 264.844,321.484 264.844 C 320.964 264.844,320.703 264.583,320.703 264.063 C 320.703 263.542,320.964 263.281,321.484 263.281 C 322.005 263.281,322.266 263.542,322.266 264.063 M54.688 267.188 C 54.688 267.853,54.427 267.969,52.930 267.969 C 51.432 267.969,51.172 267.853,51.172 267.188 C 51.172 266.522,51.432 266.406,52.930 266.406 C 54.427 266.406,54.688 266.522,54.688 267.188 M295.703 302.344 C 295.703 302.865,295.443 303.125,294.922 303.125 C 294.401 303.125,294.141 302.865,294.141 302.344 C 294.141 301.823,294.401 301.563,294.922 301.563 C 295.443 301.563,295.703 301.823,295.703 302.344 " stroke="none" fill="#cc2404" fill-rule="evenodd"></path><path id="path1" d="M137.500 56.250 C 137.500 57.656,137.598 57.813,138.477 57.813 C 139.332 57.813,139.453 57.982,139.453 59.180 C 139.453 60.286,139.602 60.547,140.234 60.547 C 140.929 60.547,141.016 60.807,141.016 62.891 L 141.016 65.234 142.578 65.234 L 144.141 65.234 144.141 67.578 C 144.141 69.818,144.184 69.922,145.117 69.922 C 145.996 69.922,146.094 70.078,146.094 71.484 L 146.094 73.047 147.656 73.047 C 149.182 73.047,149.219 73.079,149.219 74.414 C 149.219 75.612,149.340 75.781,150.195 75.781 C 151.074 75.781,151.172 75.938,151.172 77.344 C 151.172 78.646,151.302 78.906,151.953 78.906 C 152.474 78.906,152.734 79.167,152.734 79.688 C 152.734 80.208,152.995 80.469,153.516 80.469 C 154.036 80.469,154.297 80.729,154.297 81.250 C 154.297 81.916,154.557 82.031,156.055 82.031 L 157.813 82.031 157.813 83.594 C 157.813 84.896,157.943 85.156,158.594 85.156 C 159.245 85.156,159.375 85.417,159.375 86.719 C 159.375 88.021,159.505 88.281,160.156 88.281 C 160.789 88.281,160.938 88.542,160.938 89.648 C 160.938 91.008,160.947 91.016,162.695 91.016 L 164.453 91.016 164.453 94.141 C 164.453 97.005,164.518 97.266,165.234 97.266 C 165.885 97.266,166.016 97.526,166.016 98.828 L 166.016 100.391 167.578 100.391 L 169.141 100.391 169.141 101.953 C 169.141 103.359,169.238 103.516,170.117 103.516 C 170.973 103.516,171.094 103.685,171.094 104.883 C 171.094 105.990,171.243 106.250,171.875 106.250 C 172.526 106.250,172.656 106.510,172.656 107.813 L 172.656 109.375 174.219 109.375 L 175.781 109.375 175.781 110.938 C 175.781 112.344,175.879 112.500,176.758 112.500 C 177.637 112.500,177.734 112.656,177.734 114.063 C 177.734 115.365,177.865 115.625,178.516 115.625 C 179.202 115.625,179.297 115.885,179.297 117.773 L 179.297 119.922 180.859 119.922 L 182.422 119.922 182.422 121.484 C 182.422 122.891,182.520 123.047,183.398 123.047 C 184.277 123.047,184.375 123.203,184.375 124.609 L 184.375 126.172 185.938 126.172 C 187.240 126.172,187.500 126.302,187.500 126.953 C 187.500 127.474,187.760 127.734,188.281 127.734 C 188.802 127.734,189.063 127.995,189.063 128.516 C 189.063 129.089,189.323 129.297,190.039 129.297 C 190.972 129.297,191.016 129.401,191.016 131.641 C 191.016 133.724,191.102 133.984,191.797 133.984 C 192.231 133.984,192.578 134.245,192.578 134.570 C 192.578 134.896,192.925 135.156,193.359 135.156 C 193.880 135.156,194.141 135.417,194.141 135.938 C 194.141 136.458,194.401 136.719,194.922 136.719 C 195.573 136.719,195.703 136.979,195.703 138.281 C 195.703 139.688,195.801 139.844,196.680 139.844 C 197.559 139.844,197.656 140.000,197.656 141.406 C 197.656 142.708,197.786 142.969,198.438 142.969 C 199.132 142.969,199.219 143.229,199.219 145.313 L 199.219 147.656 201.758 147.656 C 204.036 147.656,204.297 147.576,204.297 146.875 C 204.297 146.302,204.036 146.094,203.320 146.094 C 202.441 146.094,202.344 145.938,202.344 144.531 C 202.344 143.125,202.441 142.969,203.320 142.969 C 204.036 142.969,204.297 142.760,204.297 142.188 C 204.297 141.486,204.036 141.406,201.758 141.406 L 199.219 141.406 199.219 139.063 C 199.219 136.979,199.132 136.719,198.438 136.719 C 197.805 136.719,197.656 136.458,197.656 135.352 C 197.656 134.154,197.535 133.984,196.680 133.984 C 195.964 133.984,195.703 133.776,195.703 133.203 C 195.703 132.682,195.443 132.422,194.922 132.422 C 194.227 132.422,194.141 132.161,194.141 130.078 L 194.141 127.734 192.578 127.734 L 191.016 127.734 191.016 126.172 L 191.016 124.609 188.477 124.609 L 185.938 124.609 185.938 123.047 C 185.938 121.745,185.807 121.484,185.156 121.484 C 184.524 121.484,184.375 121.224,184.375 120.117 C 184.375 118.757,184.366 118.750,182.617 118.750 L 180.859 118.750 180.859 116.406 C 180.859 114.323,180.773 114.063,180.078 114.063 C 179.384 114.063,179.297 113.802,179.297 111.719 C 179.297 109.635,179.210 109.375,178.516 109.375 C 177.995 109.375,177.734 109.115,177.734 108.594 C 177.734 107.928,177.474 107.813,175.977 107.813 L 174.219 107.813 174.219 106.250 C 174.219 104.948,174.089 104.688,173.438 104.688 C 172.805 104.688,172.656 104.427,172.656 103.320 C 172.656 102.214,172.507 101.953,171.875 101.953 C 171.224 101.953,171.094 101.693,171.094 100.391 L 171.094 98.828 169.336 98.828 L 167.578 98.828 167.578 97.266 C 167.578 95.964,167.448 95.703,166.797 95.703 C 166.081 95.703,166.016 95.443,166.016 92.578 L 166.016 89.453 164.258 89.453 C 162.509 89.453,162.500 89.446,162.500 88.086 C 162.500 86.979,162.351 86.719,161.719 86.719 C 161.068 86.719,160.938 86.458,160.938 85.156 C 160.938 83.854,160.807 83.594,160.156 83.594 C 159.505 83.594,159.375 83.333,159.375 82.031 L 159.375 80.469 156.836 80.469 L 154.297 80.469 154.297 78.906 C 154.297 77.604,154.167 77.344,153.516 77.344 C 152.865 77.344,152.734 77.083,152.734 75.781 C 152.734 74.479,152.604 74.219,151.953 74.219 C 151.321 74.219,151.172 73.958,151.172 72.852 C 151.172 71.492,151.163 71.484,149.414 71.484 L 147.656 71.484 147.656 69.922 C 147.656 68.620,147.526 68.359,146.875 68.359 C 146.159 68.359,146.094 68.099,146.094 65.234 C 146.094 62.161,146.077 62.109,145.117 62.109 C 144.401 62.109,144.141 62.318,144.141 62.891 C 144.141 63.411,143.880 63.672,143.359 63.672 C 142.708 63.672,142.578 63.411,142.578 62.109 C 142.578 60.807,142.448 60.547,141.797 60.547 C 141.110 60.547,141.016 60.286,141.016 58.398 C 141.016 56.510,140.921 56.250,140.234 56.250 C 139.714 56.250,139.453 55.990,139.453 55.469 C 139.453 54.896,139.193 54.688,138.477 54.688 C 137.598 54.688,137.500 54.844,137.500 56.250 M258.984 56.836 C 258.984 58.724,259.079 58.984,259.766 58.984 C 260.417 58.984,260.547 59.245,260.547 60.547 C 260.547 61.953,260.645 62.109,261.523 62.109 C 262.402 62.109,262.500 62.266,262.500 63.672 L 262.500 65.234 264.063 65.234 L 265.625 65.234 265.625 67.578 C 265.625 69.661,265.712 69.922,266.406 69.922 C 267.057 69.922,267.188 70.182,267.188 71.484 L 267.188 73.047 268.945 73.047 C 270.694 73.047,270.703 73.054,270.703 74.414 C 270.703 75.521,270.852 75.781,271.484 75.781 C 272.135 75.781,272.266 76.042,272.266 77.344 C 272.266 78.750,272.363 78.906,273.242 78.906 C 274.121 78.906,274.219 79.063,274.219 80.469 C 274.219 81.771,274.349 82.031,275.000 82.031 C 275.521 82.031,275.781 82.292,275.781 82.813 C 275.781 83.333,276.042 83.594,276.563 83.594 C 277.214 83.594,277.344 83.854,277.344 85.156 C 277.344 86.458,277.474 86.719,278.125 86.719 C 278.757 86.719,278.906 86.979,278.906 88.086 C 278.906 89.446,278.916 89.453,280.664 89.453 C 282.161 89.453,282.422 89.569,282.422 90.234 C 282.422 90.755,282.682 91.016,283.203 91.016 C 283.724 91.016,283.984 91.276,283.984 91.797 C 283.984 92.318,284.245 92.578,284.766 92.578 C 285.460 92.578,285.547 92.839,285.547 94.922 C 285.547 97.161,285.590 97.266,286.523 97.266 C 287.402 97.266,287.500 97.422,287.500 98.828 C 287.500 100.130,287.630 100.391,288.281 100.391 C 288.932 100.391,289.063 100.651,289.063 101.953 L 289.063 103.516 290.625 103.516 C 292.150 103.516,292.188 103.548,292.188 104.883 C 292.188 106.081,292.308 106.250,293.164 106.250 C 294.043 106.250,294.141 106.406,294.141 107.813 L 294.141 109.375 295.703 109.375 L 297.266 109.375 297.266 110.938 C 297.266 112.240,297.396 112.500,298.047 112.500 C 298.698 112.500,298.828 112.760,298.828 114.063 C 298.828 115.469,298.926 115.625,299.805 115.625 C 300.684 115.625,300.781 115.781,300.781 117.188 C 300.781 118.594,300.684 118.750,299.805 118.750 C 299.197 118.750,298.828 118.971,298.828 119.336 C 298.828 119.701,299.197 119.922,299.805 119.922 C 300.521 119.922,300.781 120.130,300.781 120.703 C 300.781 121.224,301.042 121.484,301.563 121.484 C 302.083 121.484,302.344 121.224,302.344 120.703 C 302.344 120.182,302.604 119.922,303.125 119.922 C 303.776 119.922,303.906 120.182,303.906 121.484 C 303.906 122.786,304.036 123.047,304.688 123.047 C 305.208 123.047,305.469 123.307,305.469 123.828 C 305.469 124.349,305.208 124.609,304.688 124.609 C 304.167 124.609,303.906 124.870,303.906 125.391 C 303.906 125.911,304.167 126.172,304.688 126.172 C 305.208 126.172,305.469 126.432,305.469 126.953 C 305.469 127.526,305.729 127.734,306.445 127.734 C 307.324 127.734,307.422 127.891,307.422 129.297 L 307.422 130.859 308.984 130.859 L 310.547 130.859 310.547 132.422 C 310.547 133.724,310.677 133.984,311.328 133.984 C 311.961 133.984,312.109 134.245,312.109 135.352 C 312.109 136.712,312.119 136.719,313.867 136.719 L 315.625 136.719 315.625 138.281 C 315.625 139.583,315.755 139.844,316.406 139.844 C 317.057 139.844,317.188 140.104,317.188 141.406 C 317.188 142.708,317.318 142.969,317.969 142.969 C 318.663 142.969,318.750 143.229,318.750 145.313 L 318.750 147.656 320.508 147.656 C 322.005 147.656,322.266 147.772,322.266 148.438 C 322.266 148.958,322.526 149.219,323.047 149.219 C 323.733 149.219,323.828 149.479,323.828 151.367 L 323.828 153.516 325.586 153.516 L 327.344 153.516 327.344 155.078 L 327.344 156.641 328.906 156.641 L 330.469 156.641 330.469 158.203 C 330.469 159.609,330.566 159.766,331.445 159.766 C 332.324 159.766,332.422 159.922,332.422 161.328 L 332.422 162.891 333.984 162.891 L 335.547 162.891 335.547 164.453 C 335.547 165.755,335.677 166.016,336.328 166.016 C 337.040 166.016,337.109 166.276,337.109 168.945 C 337.109 171.810,337.131 171.875,338.086 171.875 C 338.965 171.875,339.063 172.031,339.063 173.438 L 339.063 175.000 340.625 175.000 L 342.188 175.000 342.188 176.563 C 342.188 177.865,342.318 178.125,342.969 178.125 C 343.620 178.125,343.750 178.385,343.750 179.688 C 343.750 181.094,343.848 181.250,344.727 181.250 C 345.582 181.250,345.703 181.419,345.703 182.617 C 345.703 183.952,345.740 183.984,347.266 183.984 L 348.828 183.984 348.828 185.547 C 348.828 186.849,348.958 187.109,349.609 187.109 C 350.260 187.109,350.391 187.370,350.391 188.672 L 350.391 190.234 352.148 190.234 L 353.906 190.234 353.906 191.797 C 353.906 193.099,354.036 193.359,354.688 193.359 C 355.374 193.359,355.469 193.620,355.469 195.508 C 355.469 197.396,355.563 197.656,356.250 197.656 C 356.901 197.656,357.031 197.917,357.031 199.219 L 357.031 200.781 358.789 200.781 L 360.547 200.781 360.547 203.125 L 360.547 205.469 362.109 205.469 L 363.672 205.469 363.672 203.125 C 363.672 201.042,363.585 200.781,362.891 200.781 C 362.370 200.781,362.109 200.521,362.109 200.000 C 362.109 199.479,361.849 199.219,361.328 199.219 C 360.807 199.219,360.547 198.958,360.547 198.438 C 360.547 197.917,360.286 197.656,359.766 197.656 C 359.332 197.656,358.984 197.396,358.984 197.070 C 358.984 196.706,358.615 196.484,358.008 196.484 C 357.075 196.484,357.031 196.380,357.031 194.141 C 357.031 192.057,356.944 191.797,356.250 191.797 C 355.599 191.797,355.469 191.536,355.469 190.234 L 355.469 188.672 353.906 188.672 L 352.344 188.672 352.344 187.109 C 352.344 185.703,352.246 185.547,351.367 185.547 C 350.488 185.547,350.391 185.391,350.391 183.984 L 350.391 182.422 348.828 182.422 C 347.303 182.422,347.266 182.389,347.266 181.055 C 347.266 179.948,347.117 179.688,346.484 179.688 C 345.833 179.688,345.703 179.427,345.703 178.125 C 345.703 176.719,345.605 176.563,344.727 176.563 C 343.848 176.563,343.750 176.406,343.750 175.000 L 343.750 173.438 342.188 173.438 L 340.625 173.438 340.625 171.875 C 340.625 170.573,340.495 170.313,339.844 170.313 C 339.132 170.313,339.063 170.052,339.063 167.383 C 339.063 164.518,339.041 164.453,338.086 164.453 C 337.207 164.453,337.109 164.297,337.109 162.891 L 337.109 161.328 335.547 161.328 L 333.984 161.328 333.984 159.766 C 333.984 158.464,333.854 158.203,333.203 158.203 C 332.552 158.203,332.422 157.943,332.422 156.641 L 332.422 155.078 330.664 155.078 L 328.906 155.078 328.906 153.516 C 328.906 152.214,328.776 151.953,328.125 151.953 C 327.493 151.953,327.344 151.693,327.344 150.586 C 327.344 149.388,327.223 149.219,326.367 149.219 C 325.488 149.219,325.391 149.063,325.391 147.656 L 325.391 146.094 323.047 146.094 L 320.703 146.094 320.703 142.969 C 320.703 139.896,320.687 139.844,319.727 139.844 C 319.010 139.844,318.750 139.635,318.750 139.063 C 318.750 138.542,318.490 138.281,317.969 138.281 C 317.318 138.281,317.188 138.021,317.188 136.719 L 317.188 135.156 315.625 135.156 C 314.100 135.156,314.063 135.124,314.063 133.789 C 314.063 132.591,313.942 132.422,313.086 132.422 C 312.153 132.422,312.109 132.318,312.109 130.078 L 312.109 127.734 310.547 127.734 L 308.984 127.734 308.984 126.172 C 308.984 124.870,308.854 124.609,308.203 124.609 C 307.552 124.609,307.422 124.349,307.422 123.047 C 307.422 121.641,307.324 121.484,306.445 121.484 C 305.590 121.484,305.469 121.315,305.469 120.117 C 305.469 118.783,305.432 118.750,303.906 118.750 L 302.344 118.750 302.344 116.406 C 302.344 114.323,302.257 114.063,301.563 114.063 C 300.911 114.063,300.781 113.802,300.781 112.500 C 300.781 111.094,300.684 110.938,299.805 110.938 C 298.926 110.938,298.828 110.781,298.828 109.375 L 298.828 107.813 297.266 107.813 L 295.703 107.813 295.703 106.250 C 295.703 104.948,295.573 104.688,294.922 104.688 C 294.289 104.688,294.141 104.427,294.141 103.320 C 294.141 101.960,294.131 101.953,292.383 101.953 L 290.625 101.953 290.625 100.391 C 290.625 99.089,290.495 98.828,289.844 98.828 C 289.193 98.828,289.063 98.568,289.063 97.266 C 289.063 95.964,288.932 95.703,288.281 95.703 C 287.587 95.703,287.500 95.443,287.500 93.359 C 287.500 91.120,287.457 91.016,286.523 91.016 C 285.807 91.016,285.547 90.807,285.547 90.234 C 285.547 89.714,285.286 89.453,284.766 89.453 C 284.332 89.453,283.984 89.193,283.984 88.867 C 283.984 88.542,283.637 88.281,283.203 88.281 C 282.682 88.281,282.422 88.021,282.422 87.500 C 282.422 86.834,282.161 86.719,280.664 86.719 C 279.167 86.719,278.906 86.603,278.906 85.938 C 278.906 85.365,279.167 85.156,279.883 85.156 C 280.599 85.156,280.859 84.948,280.859 84.375 C 280.859 83.802,280.599 83.594,279.883 83.594 C 279.004 83.594,278.906 83.438,278.906 82.031 L 278.906 80.469 277.344 80.469 L 275.781 80.469 275.781 78.906 C 275.781 77.604,275.651 77.344,275.000 77.344 C 274.349 77.344,274.219 77.083,274.219 75.781 C 274.219 74.375,274.121 74.219,273.242 74.219 C 272.387 74.219,272.266 74.049,272.266 72.852 C 272.266 71.517,272.228 71.484,270.703 71.484 L 269.141 71.484 269.141 69.922 C 269.141 68.516,269.043 68.359,268.164 68.359 C 267.231 68.359,267.188 68.255,267.188 66.016 L 267.188 63.672 265.625 63.672 L 264.063 63.672 264.063 62.109 C 264.063 60.807,263.932 60.547,263.281 60.547 C 262.649 60.547,262.500 60.286,262.500 59.180 C 262.500 57.982,262.379 57.813,261.523 57.813 C 260.645 57.813,260.547 57.656,260.547 56.250 C 260.547 54.948,260.417 54.688,259.766 54.688 C 259.079 54.688,258.984 54.948,258.984 56.836 M31.250 150.000 C 31.250 150.754,31.510 150.781,38.672 150.781 C 45.009 150.781,46.094 150.867,46.094 151.367 C 46.094 151.732,46.463 151.953,47.070 151.953 C 47.678 151.953,48.047 151.732,48.047 151.367 C 48.047 150.857,49.870 150.781,62.109 150.781 C 74.349 150.781,76.172 150.857,76.172 151.367 C 76.172 151.693,76.519 151.953,76.953 151.953 C 77.474 151.953,77.734 152.214,77.734 152.734 C 77.734 153.255,77.995 153.516,78.516 153.516 C 79.036 153.516,79.297 153.776,79.297 154.297 C 79.297 154.870,79.557 155.078,80.273 155.078 C 80.990 155.078,81.250 154.870,81.250 154.297 C 81.250 153.602,81.510 153.516,83.594 153.516 L 85.938 153.516 85.938 155.078 L 85.938 156.641 87.695 156.641 L 89.453 156.641 89.453 158.203 L 89.453 159.766 91.211 159.766 L 92.969 159.766 92.969 161.328 L 92.969 162.891 94.531 162.891 L 96.094 162.891 96.094 164.453 C 96.094 165.755,96.224 166.016,96.875 166.016 C 97.526 166.016,97.656 165.755,97.656 164.453 C 97.656 163.151,97.526 162.891,96.875 162.891 C 96.224 162.891,96.094 162.630,96.094 161.328 C 96.094 160.026,95.964 159.766,95.313 159.766 C 94.792 159.766,94.531 159.505,94.531 158.984 C 94.531 158.319,94.271 158.203,92.773 158.203 L 91.016 158.203 91.016 156.641 L 91.016 155.078 89.453 155.078 L 87.891 155.078 87.891 153.516 L 87.891 151.953 83.594 151.953 L 79.297 151.953 79.297 150.586 L 79.297 149.219 55.273 149.219 C 31.510 149.219,31.250 149.227,31.250 150.000 M116.016 208.594 L 116.016 267.969 128.516 267.969 L 141.016 267.969 141.016 249.609 L 141.016 231.250 146.875 231.250 C 152.474 231.250,152.734 231.215,152.734 230.469 C 152.734 229.718,152.474 229.688,146.094 229.688 L 139.453 229.688 139.453 248.047 L 139.453 266.406 128.516 266.406 L 117.578 266.406 117.578 209.961 L 117.578 153.516 118.555 153.516 C 119.271 153.516,119.531 153.307,119.531 152.734 C 119.531 152.161,119.271 151.953,118.555 151.953 C 117.947 151.953,117.578 151.732,117.578 151.367 C 117.578 150.866,118.685 150.781,125.195 150.781 C 131.706 150.781,132.813 150.866,132.813 151.367 C 132.813 151.693,133.160 151.953,133.594 151.953 C 134.028 151.953,134.375 151.693,134.375 151.367 C 134.375 150.857,136.306 150.781,149.414 150.781 L 164.453 150.781 164.453 152.148 L 164.453 153.516 167.773 153.516 C 170.833 153.516,171.094 153.454,171.094 152.734 C 171.094 152.033,170.833 151.953,168.555 151.953 L 166.016 151.953 166.016 150.586 L 166.016 149.219 141.016 149.219 L 116.016 149.219 116.016 208.594 M202.344 150.000 C 202.344 150.666,202.604 150.781,204.102 150.781 C 205.599 150.781,205.859 150.666,205.859 150.000 C 205.859 149.334,205.599 149.219,204.102 149.219 C 202.604 149.219,202.344 149.334,202.344 150.000 M31.250 152.734 C 31.250 153.255,31.510 153.516,32.031 153.516 C 32.552 153.516,32.813 153.255,32.813 152.734 C 32.813 152.214,32.552 151.953,32.031 151.953 C 31.510 151.953,31.250 152.214,31.250 152.734 M204.297 152.734 C 204.297 153.385,204.557 153.516,205.859 153.516 C 207.161 153.516,207.422 153.385,207.422 152.734 C 207.422 152.083,207.161 151.953,205.859 151.953 C 204.557 151.953,204.297 152.083,204.297 152.734 M171.094 156.641 C 171.094 157.943,171.224 158.203,171.875 158.203 C 172.396 158.203,172.656 158.464,172.656 158.984 C 172.656 159.635,172.917 159.766,174.219 159.766 L 175.781 159.766 175.781 162.891 C 175.781 165.964,175.798 166.016,176.758 166.016 C 177.713 166.016,177.734 166.081,177.734 168.945 C 177.734 171.615,177.804 171.875,178.516 171.875 C 179.253 171.875,179.297 172.135,179.297 176.563 L 179.297 181.250 180.859 181.250 L 182.422 181.250 182.422 183.398 C 182.422 185.286,182.327 185.547,181.641 185.547 C 181.120 185.547,180.859 185.286,180.859 184.766 C 180.859 184.245,180.599 183.984,180.078 183.984 C 179.427 183.984,179.297 184.245,179.297 185.547 L 179.297 187.109 180.859 187.109 L 182.422 187.109 182.422 189.453 L 182.422 191.797 180.859 191.797 L 179.297 191.797 179.297 198.633 C 179.297 205.208,179.267 205.469,178.516 205.469 C 177.789 205.469,177.734 205.729,177.734 209.180 C 177.734 212.878,177.731 212.891,176.758 212.891 C 175.879 212.891,175.781 213.047,175.781 214.453 L 175.781 216.016 174.219 216.016 L 172.656 216.016 172.656 218.359 L 172.656 220.703 170.898 220.703 L 169.141 220.703 169.141 222.266 L 169.141 223.828 166.797 223.828 L 164.453 223.828 164.453 225.391 L 164.453 226.953 157.813 226.953 C 152.170 226.953,151.172 227.041,151.172 227.539 C 151.172 228.037,152.170 228.125,157.813 228.125 C 163.455 228.125,164.453 228.037,164.453 227.539 C 164.453 227.214,164.800 226.953,165.234 226.953 C 165.755 226.953,166.016 226.693,166.016 226.172 C 166.016 225.471,166.276 225.391,168.555 225.391 L 171.094 225.391 171.094 223.828 C 171.094 222.526,171.224 222.266,171.875 222.266 C 172.396 222.266,172.656 222.005,172.656 221.484 C 172.656 220.964,172.917 220.703,173.438 220.703 C 174.089 220.703,174.219 220.443,174.219 219.141 L 174.219 217.578 175.977 217.578 L 177.734 217.578 177.734 215.234 C 177.734 213.151,177.821 212.891,178.516 212.891 C 179.227 212.891,179.297 212.630,179.297 209.961 C 179.297 207.292,179.366 207.031,180.078 207.031 C 180.830 207.031,180.859 206.771,180.859 200.195 L 180.859 193.359 182.617 193.359 L 184.375 193.359 184.375 186.523 L 184.375 179.688 182.617 179.688 L 180.859 179.688 180.859 175.000 C 180.859 170.573,180.816 170.313,180.078 170.313 C 179.342 170.313,179.297 170.052,179.297 165.820 C 179.297 161.589,179.252 161.328,178.516 161.328 C 177.865 161.328,177.734 161.068,177.734 159.766 L 177.734 158.203 175.977 158.203 L 174.219 158.203 174.219 156.641 L 174.219 155.078 172.656 155.078 L 171.094 155.078 171.094 156.641 M205.859 155.859 C 205.859 156.510,206.120 156.641,207.422 156.641 L 208.984 156.641 208.984 158.203 C 208.984 159.609,209.082 159.766,209.961 159.766 C 210.840 159.766,210.938 159.922,210.938 161.328 C 210.938 162.630,211.068 162.891,211.719 162.891 C 212.413 162.891,212.500 162.630,212.500 160.547 C 212.500 158.464,212.413 158.203,211.719 158.203 C 211.068 158.203,210.938 157.943,210.938 156.641 L 210.938 155.078 208.398 155.078 C 206.120 155.078,205.859 155.158,205.859 155.859 M214.063 163.672 C 214.063 165.911,214.106 166.016,215.039 166.016 C 215.895 166.016,216.016 166.185,216.016 167.383 C 216.016 168.490,216.164 168.750,216.797 168.750 C 217.448 168.750,217.578 169.010,217.578 170.313 C 217.578 171.615,217.708 171.875,218.359 171.875 C 218.880 171.875,219.141 172.135,219.141 172.656 C 219.141 173.177,219.401 173.438,219.922 173.438 C 220.443 173.438,220.703 173.698,220.703 174.219 C 220.703 174.792,220.964 175.000,221.680 175.000 C 222.559 175.000,222.656 175.156,222.656 176.563 C 222.656 177.865,222.786 178.125,223.438 178.125 C 224.089 178.125,224.219 178.385,224.219 179.688 C 224.219 180.990,224.349 181.250,225.000 181.250 C 225.434 181.250,225.781 181.510,225.781 181.836 C 225.781 182.161,226.128 182.422,226.563 182.422 C 227.083 182.422,227.344 182.682,227.344 183.203 C 227.344 183.776,227.604 183.984,228.320 183.984 C 229.244 183.984,229.297 183.867,229.297 181.836 L 229.297 179.688 227.539 179.688 L 225.781 179.688 225.781 178.125 C 225.781 176.823,225.651 176.563,225.000 176.563 C 224.349 176.563,224.219 176.302,224.219 175.000 C 224.219 173.698,224.089 173.438,223.438 173.438 C 222.786 173.438,222.656 173.177,222.656 171.875 L 222.656 170.313 220.898 170.313 L 219.141 170.313 219.141 167.383 L 219.141 164.453 217.578 164.453 L 216.016 164.453 216.016 162.891 C 216.016 161.484,215.918 161.328,215.039 161.328 C 214.106 161.328,214.063 161.432,214.063 163.672 M99.609 170.508 C 99.609 174.740,99.655 175.000,100.391 175.000 C 101.085 175.000,101.172 175.260,101.172 177.344 C 101.172 179.427,101.259 179.688,101.953 179.688 C 102.474 179.688,102.734 179.948,102.734 180.469 C 102.734 180.990,102.995 181.250,103.516 181.250 C 104.227 181.250,104.297 181.510,104.297 184.180 C 104.297 187.044,104.319 187.109,105.273 187.109 L 106.250 187.109 106.250 206.250 C 106.250 225.130,106.261 225.391,107.031 225.391 C 107.802 225.391,107.813 225.130,107.813 205.469 C 107.813 185.807,107.802 185.547,107.031 185.547 C 106.295 185.547,106.250 185.286,106.250 181.055 L 106.250 176.563 104.492 176.563 L 102.734 176.563 102.734 175.000 C 102.734 173.698,102.604 173.438,101.953 173.438 C 101.227 173.438,101.172 173.177,101.172 169.727 C 101.172 166.276,101.117 166.016,100.391 166.016 C 99.655 166.016,99.609 166.276,99.609 170.508 M56.250 174.219 C 56.250 174.740,55.990 175.000,55.469 175.000 C 54.694 175.000,54.688 175.260,54.688 208.594 C 54.688 241.927,54.694 242.188,55.469 242.188 C 55.990 242.188,56.250 241.927,56.250 241.406 C 56.250 240.885,56.510 240.625,57.031 240.625 C 57.664 240.625,57.813 240.885,57.813 241.992 C 57.813 243.099,57.961 243.359,58.594 243.359 C 59.226 243.359,59.375 243.099,59.375 241.992 C 59.375 240.632,59.384 240.625,61.133 240.625 C 62.630 240.625,62.891 240.741,62.891 241.406 C 62.891 241.927,63.151 242.188,63.672 242.188 C 64.193 242.188,64.453 241.927,64.453 241.406 C 64.453 240.741,64.714 240.625,66.211 240.625 C 67.708 240.625,67.969 240.741,67.969 241.406 C 67.969 242.057,68.229 242.188,69.531 242.188 L 71.094 242.188 71.094 239.844 L 71.094 237.500 73.633 237.500 L 76.172 237.500 76.172 235.938 C 76.172 234.635,76.302 234.375,76.953 234.375 C 77.604 234.375,77.734 234.115,77.734 232.813 C 77.734 231.510,77.865 231.250,78.516 231.250 C 79.242 231.250,79.297 230.990,79.297 227.539 C 79.297 224.089,79.242 223.828,78.516 223.828 C 77.865 223.828,77.734 224.089,77.734 225.391 C 77.734 226.693,77.604 226.953,76.953 226.953 C 76.267 226.953,76.172 227.214,76.172 229.102 C 76.172 230.990,76.077 231.250,75.391 231.250 C 74.696 231.250,74.609 231.510,74.609 233.594 L 74.609 235.938 72.070 235.938 C 69.792 235.938,69.531 236.018,69.531 236.719 C 69.531 237.240,69.271 237.500,68.750 237.500 C 68.229 237.500,67.969 237.760,67.969 238.281 C 67.969 239.028,67.708 239.063,62.109 239.063 L 56.250 239.063 56.250 208.594 L 56.250 178.125 62.891 178.125 L 69.531 178.125 69.531 179.688 L 69.531 181.250 72.070 181.250 L 74.609 181.250 74.609 182.617 C 74.609 183.724,74.758 183.984,75.391 183.984 C 76.042 183.984,76.172 184.245,76.172 185.547 C 76.172 186.849,76.302 187.109,76.953 187.109 C 77.669 187.109,77.734 187.370,77.734 190.234 L 77.734 193.359 79.492 193.359 L 81.250 193.359 81.250 207.813 C 81.250 222.005,81.264 222.266,82.031 222.266 C 82.799 222.266,82.813 222.005,82.813 207.031 L 82.813 191.797 81.055 191.797 C 79.557 191.797,79.297 191.681,79.297 191.016 C 79.297 190.350,79.557 190.234,81.055 190.234 C 82.552 190.234,82.813 190.119,82.813 189.453 C 82.813 188.788,82.552 188.672,81.055 188.672 L 79.297 188.672 79.297 187.109 C 79.297 185.807,79.167 185.547,78.516 185.547 C 77.995 185.547,77.734 185.286,77.734 184.766 C 77.734 184.245,77.995 183.984,78.516 183.984 C 79.036 183.984,79.297 183.724,79.297 183.203 C 79.297 182.552,79.036 182.422,77.734 182.422 C 76.209 182.422,76.172 182.389,76.172 181.055 L 76.172 179.688 73.633 179.688 C 71.354 179.688,71.094 179.607,71.094 178.906 C 71.094 178.385,70.833 178.125,70.313 178.125 C 69.792 178.125,69.531 177.865,69.531 177.344 C 69.531 176.823,69.792 176.563,70.313 176.563 C 70.833 176.563,71.094 176.302,71.094 175.781 C 71.094 175.260,70.833 175.000,70.313 175.000 C 69.792 175.000,69.531 175.260,69.531 175.781 C 69.531 176.501,69.271 176.563,66.211 176.563 C 63.151 176.563,62.891 176.501,62.891 175.781 C 62.891 175.260,62.630 175.000,62.109 175.000 C 61.589 175.000,61.328 174.740,61.328 174.219 C 61.328 173.518,61.068 173.438,58.789 173.438 C 56.510 173.438,56.250 173.518,56.250 174.219 M139.453 174.219 C 139.453 174.740,139.714 175.000,140.234 175.000 C 140.755 175.000,141.016 175.260,141.016 175.781 C 141.016 176.302,140.755 176.563,140.234 176.563 C 139.470 176.563,139.453 176.823,139.453 188.672 C 139.453 200.521,139.470 200.781,140.234 200.781 C 140.885 200.781,141.016 201.042,141.016 202.344 C 141.016 203.646,141.146 203.906,141.797 203.906 C 142.318 203.906,142.578 204.167,142.578 204.688 C 142.578 205.353,142.839 205.469,144.336 205.469 L 146.094 205.469 146.094 203.906 L 146.094 202.344 144.336 202.344 C 142.839 202.344,142.578 202.228,142.578 201.563 C 142.578 201.042,142.318 200.781,141.797 200.781 C 141.034 200.781,141.016 200.521,141.016 189.453 L 141.016 178.125 142.578 178.125 C 143.880 178.125,144.141 177.995,144.141 177.344 C 144.141 176.678,144.401 176.563,145.898 176.563 C 147.396 176.563,147.656 176.678,147.656 177.344 C 147.656 178.045,147.917 178.125,150.195 178.125 C 152.474 178.125,152.734 178.205,152.734 178.906 C 152.734 179.427,152.995 179.688,153.516 179.688 C 154.036 179.688,154.297 179.948,154.297 180.469 C 154.297 180.990,154.557 181.250,155.078 181.250 C 155.512 181.250,155.859 181.510,155.859 181.836 C 155.859 182.201,156.228 182.422,156.836 182.422 L 157.813 182.422 157.813 187.891 L 157.813 193.359 156.836 193.359 C 155.957 193.359,155.859 193.516,155.859 194.922 L 155.859 196.484 154.297 196.484 C 153.168 196.484,152.734 196.647,152.734 197.070 C 152.734 197.545,153.364 197.656,156.055 197.656 L 159.375 197.656 159.375 187.891 C 159.375 178.385,159.354 178.125,158.594 178.125 C 158.073 178.125,157.813 178.385,157.813 178.906 C 157.813 179.572,157.552 179.688,156.055 179.688 C 154.557 179.688,154.297 179.572,154.297 178.906 C 154.297 178.385,154.557 178.125,155.078 178.125 C 155.599 178.125,155.859 177.865,155.859 177.344 C 155.859 176.612,155.599 176.563,151.758 176.563 C 147.917 176.563,147.656 176.513,147.656 175.781 C 147.656 175.260,147.917 175.000,148.438 175.000 C 148.958 175.000,149.219 174.740,149.219 174.219 C 149.219 173.479,148.958 173.438,144.336 173.438 C 139.714 173.438,139.453 173.479,139.453 174.219 M61.328 175.781 C 61.328 176.447,61.068 176.563,59.570 176.563 C 58.073 176.563,57.813 176.447,57.813 175.781 C 57.813 175.116,58.073 175.000,59.570 175.000 C 61.068 175.000,61.328 175.116,61.328 175.781 M229.297 186.328 C 229.297 186.849,229.557 187.109,230.078 187.109 C 230.599 187.109,230.859 186.849,230.859 186.328 C 230.859 185.807,230.599 185.547,230.078 185.547 C 229.557 185.547,229.297 185.807,229.297 186.328 M232.422 188.672 C 232.422 189.974,232.552 190.234,233.203 190.234 C 233.854 190.234,233.984 190.495,233.984 191.797 L 233.984 193.359 235.742 193.359 C 237.240 193.359,237.500 193.244,237.500 192.578 C 237.500 192.057,237.240 191.797,236.719 191.797 C 236.198 191.797,235.938 191.536,235.938 191.016 C 235.938 190.443,235.677 190.234,234.961 190.234 C 234.245 190.234,233.984 190.026,233.984 189.453 C 233.984 188.880,234.245 188.672,234.961 188.672 C 235.677 188.672,235.938 188.464,235.938 187.891 C 235.938 187.225,235.677 187.109,234.180 187.109 L 232.422 187.109 232.422 188.672 M235.938 197.070 C 235.938 197.493,236.372 197.656,237.500 197.656 C 238.628 197.656,239.063 197.493,239.063 197.070 C 239.063 196.647,238.628 196.484,237.500 196.484 C 236.372 196.484,235.938 196.647,235.938 197.070 M147.656 200.000 C 147.656 200.701,147.917 200.781,150.195 200.781 C 152.474 200.781,152.734 200.701,152.734 200.000 C 152.734 199.299,152.474 199.219,150.195 199.219 C 147.917 199.219,147.656 199.299,147.656 200.000 M240.625 200.000 C 240.625 200.573,240.885 200.781,241.602 200.781 C 242.318 200.781,242.578 200.573,242.578 200.000 C 242.578 199.427,242.318 199.219,241.602 199.219 C 240.885 199.219,240.625 199.427,240.625 200.000 M242.578 207.031 L 242.578 211.719 244.141 211.719 L 245.703 211.719 245.703 207.031 L 245.703 202.344 244.141 202.344 L 242.578 202.344 242.578 207.031 M360.547 210.742 L 360.547 212.891 358.789 212.891 L 357.031 212.891 357.031 214.453 C 357.031 215.755,356.901 216.016,356.250 216.016 C 355.556 216.016,355.469 216.276,355.469 218.359 C 355.469 220.443,355.382 220.703,354.688 220.703 C 354.036 220.703,353.906 220.964,353.906 222.266 L 353.906 223.828 352.148 223.828 L 350.391 223.828 350.391 225.391 C 350.391 226.693,350.260 226.953,349.609 226.953 C 348.977 226.953,348.828 227.214,348.828 228.320 C 348.828 229.655,348.791 229.688,347.266 229.688 L 345.703 229.688 345.703 231.250 C 345.703 232.656,345.605 232.813,344.727 232.813 C 343.848 232.813,343.750 232.969,343.750 234.375 C 343.750 235.677,343.620 235.938,342.969 235.938 C 342.318 235.938,342.188 236.198,342.188 237.500 L 342.188 239.063 340.625 239.063 L 339.063 239.063 339.063 240.625 C 339.063 242.031,338.965 242.188,338.086 242.188 C 337.131 242.188,337.109 242.253,337.109 245.117 C 337.109 247.786,337.040 248.047,336.328 248.047 C 335.677 248.047,335.547 248.307,335.547 249.609 L 335.547 251.172 333.984 251.172 L 332.422 251.172 332.422 252.734 C 332.422 254.141,332.324 254.297,331.445 254.297 C 330.566 254.297,330.469 254.453,330.469 255.859 L 330.469 257.422 328.906 257.422 C 327.381 257.422,327.344 257.454,327.344 258.789 C 327.344 260.149,327.334 260.156,325.586 260.156 L 323.828 260.156 323.828 263.281 L 323.828 266.406 321.289 266.406 L 318.750 266.406 318.750 268.750 C 318.750 270.833,318.663 271.094,317.969 271.094 C 317.318 271.094,317.188 271.354,317.188 272.656 C 317.188 273.958,317.057 274.219,316.406 274.219 C 315.774 274.219,315.625 274.479,315.625 275.586 C 315.625 276.946,315.616 276.953,313.867 276.953 L 312.109 276.953 312.109 278.516 C 312.109 279.818,311.979 280.078,311.328 280.078 C 310.634 280.078,310.547 280.339,310.547 282.422 L 310.547 284.766 308.984 284.766 C 307.682 284.766,307.422 284.896,307.422 285.547 C 307.422 286.120,307.161 286.328,306.445 286.328 C 305.729 286.328,305.469 286.536,305.469 287.109 C 305.469 287.630,305.208 287.891,304.688 287.891 C 304.167 287.891,303.906 288.151,303.906 288.672 C 303.906 289.193,304.167 289.453,304.688 289.453 C 305.122 289.453,305.469 289.714,305.469 290.039 C 305.469 290.365,305.122 290.625,304.688 290.625 C 304.036 290.625,303.906 290.885,303.906 292.188 C 303.906 293.490,303.776 293.750,303.125 293.750 C 302.604 293.750,302.344 293.490,302.344 292.969 C 302.344 292.448,302.083 292.188,301.563 292.188 C 301.042 292.188,300.781 292.448,300.781 292.969 C 300.781 293.542,300.521 293.750,299.805 293.750 C 299.089 293.750,298.828 293.958,298.828 294.531 C 298.828 295.104,299.089 295.313,299.805 295.313 C 300.684 295.313,300.781 295.469,300.781 296.875 C 300.781 298.281,300.684 298.438,299.805 298.438 C 298.926 298.438,298.828 298.594,298.828 300.000 C 298.828 301.302,298.698 301.563,298.047 301.563 C 297.396 301.563,297.266 301.823,297.266 303.125 L 297.266 304.688 295.703 304.688 C 294.178 304.688,294.141 304.720,294.141 306.055 C 294.141 307.253,294.020 307.422,293.164 307.422 C 292.285 307.422,292.188 307.578,292.188 308.984 L 292.188 310.547 290.625 310.547 L 289.063 310.547 289.063 312.109 C 289.063 313.411,288.932 313.672,288.281 313.672 C 287.630 313.672,287.500 313.932,287.500 315.234 C 287.500 316.641,287.402 316.797,286.523 316.797 C 285.600 316.797,285.547 316.914,285.547 318.945 C 285.547 320.833,285.452 321.094,284.766 321.094 C 284.245 321.094,283.984 321.354,283.984 321.875 C 283.984 322.396,283.724 322.656,283.203 322.656 C 282.682 322.656,282.422 322.917,282.422 323.438 C 282.422 324.103,282.161 324.219,280.664 324.219 L 278.906 324.219 278.906 325.781 C 278.906 327.083,278.776 327.344,278.125 327.344 C 277.474 327.344,277.344 327.604,277.344 328.906 C 277.344 330.208,277.214 330.469,276.563 330.469 C 276.042 330.469,275.781 330.729,275.781 331.250 C 275.781 331.771,275.521 332.031,275.000 332.031 C 274.349 332.031,274.219 332.292,274.219 333.594 C 274.219 335.000,274.121 335.156,273.242 335.156 C 272.387 335.156,272.266 335.326,272.266 336.523 C 272.266 337.630,272.117 337.891,271.484 337.891 C 270.833 337.891,270.703 338.151,270.703 339.453 L 270.703 341.016 268.945 341.016 L 267.188 341.016 267.188 342.578 C 267.188 343.880,267.057 344.141,266.406 344.141 C 265.712 344.141,265.625 344.401,265.625 346.484 L 265.625 348.828 264.063 348.828 C 262.537 348.828,262.500 348.861,262.500 350.195 C 262.500 351.393,262.379 351.563,261.523 351.563 C 260.645 351.563,260.547 351.719,260.547 353.125 C 260.547 354.427,260.417 354.688,259.766 354.688 C 259.071 354.688,258.984 354.948,258.984 357.031 C 258.984 359.115,259.071 359.375,259.766 359.375 C 260.417 359.375,260.547 359.115,260.547 357.813 C 260.547 356.406,260.645 356.250,261.523 356.250 C 262.402 356.250,262.500 356.094,262.500 354.688 C 262.500 353.385,262.630 353.125,263.281 353.125 C 263.914 353.125,264.063 352.865,264.063 351.758 C 264.063 350.423,264.100 350.391,265.625 350.391 L 267.188 350.391 267.188 348.047 C 267.188 345.807,267.231 345.703,268.164 345.703 C 269.043 345.703,269.141 345.547,269.141 344.141 L 269.141 342.578 270.703 342.578 L 272.266 342.578 272.266 341.016 C 272.266 339.609,272.363 339.453,273.242 339.453 C 274.121 339.453,274.219 339.297,274.219 337.891 C 274.219 336.589,274.349 336.328,275.000 336.328 C 275.632 336.328,275.781 336.068,275.781 334.961 C 275.781 333.626,275.818 333.594,277.344 333.594 L 278.906 333.594 278.906 332.031 C 278.906 330.625,279.004 330.469,279.883 330.469 C 280.599 330.469,280.859 330.260,280.859 329.688 C 280.859 329.115,280.599 328.906,279.883 328.906 C 279.167 328.906,278.906 328.698,278.906 328.125 C 278.906 327.459,279.167 327.344,280.664 327.344 C 282.161 327.344,282.422 327.228,282.422 326.563 C 282.422 326.042,282.682 325.781,283.203 325.781 C 283.724 325.781,283.984 325.521,283.984 325.000 C 283.984 324.479,284.245 324.219,284.766 324.219 C 285.286 324.219,285.547 323.958,285.547 323.438 C 285.547 322.865,285.807 322.656,286.523 322.656 C 287.447 322.656,287.500 322.539,287.500 320.508 C 287.500 318.620,287.595 318.359,288.281 318.359 C 288.932 318.359,289.063 318.099,289.063 316.797 C 289.063 315.495,289.193 315.234,289.844 315.234 C 290.495 315.234,290.625 314.974,290.625 313.672 L 290.625 312.109 292.383 312.109 L 294.141 312.109 294.141 310.547 C 294.141 309.245,294.271 308.984,294.922 308.984 C 295.573 308.984,295.703 308.724,295.703 307.422 L 295.703 305.859 297.266 305.859 C 298.791 305.859,298.828 305.827,298.828 304.492 C 298.828 303.294,298.949 303.125,299.805 303.125 C 300.684 303.125,300.781 302.969,300.781 301.563 C 300.781 300.260,300.911 300.000,301.563 300.000 C 302.257 300.000,302.344 299.740,302.344 297.656 L 302.344 295.313 303.906 295.313 L 305.469 295.313 305.469 293.750 C 305.469 292.344,305.566 292.188,306.445 292.188 C 307.301 292.188,307.422 292.018,307.422 290.820 C 307.422 289.714,307.571 289.453,308.203 289.453 C 308.854 289.453,308.984 289.193,308.984 287.891 L 308.984 286.328 310.547 286.328 L 312.109 286.328 312.109 283.984 C 312.109 281.745,312.153 281.641,313.086 281.641 C 313.965 281.641,314.063 281.484,314.063 280.078 L 314.063 278.516 315.625 278.516 L 317.188 278.516 317.188 276.953 C 317.188 275.651,317.318 275.391,317.969 275.391 C 318.403 275.391,318.750 275.130,318.750 274.805 C 318.750 274.440,319.119 274.219,319.727 274.219 C 320.687 274.219,320.703 274.167,320.703 271.094 L 320.703 267.969 323.047 267.969 L 325.391 267.969 325.391 266.406 C 325.391 265.000,325.488 264.844,326.367 264.844 C 327.246 264.844,327.344 264.688,327.344 263.281 C 327.344 261.979,327.474 261.719,328.125 261.719 C 328.757 261.719,328.906 261.458,328.906 260.352 C 328.906 258.992,328.916 258.984,330.664 258.984 L 332.422 258.984 332.422 257.422 C 332.422 256.120,332.552 255.859,333.203 255.859 C 333.854 255.859,333.984 255.599,333.984 254.297 L 333.984 252.734 335.547 252.734 L 337.109 252.734 337.109 251.172 C 337.109 249.766,337.207 249.609,338.086 249.609 C 339.046 249.609,339.063 249.557,339.063 246.484 C 339.063 243.620,339.128 243.359,339.844 243.359 C 340.476 243.359,340.625 243.099,340.625 241.992 C 340.625 240.658,340.662 240.625,342.188 240.625 L 343.750 240.625 343.750 239.063 C 343.750 237.656,343.848 237.500,344.727 237.500 C 345.605 237.500,345.703 237.344,345.703 235.938 C 345.703 234.635,345.833 234.375,346.484 234.375 C 347.135 234.375,347.266 234.115,347.266 232.813 L 347.266 231.250 348.828 231.250 L 350.391 231.250 350.391 229.688 C 350.391 228.281,350.488 228.125,351.367 228.125 C 352.223 228.125,352.344 227.956,352.344 226.758 C 352.344 225.423,352.381 225.391,353.906 225.391 L 355.469 225.391 355.469 223.828 C 355.469 222.526,355.599 222.266,356.250 222.266 C 356.944 222.266,357.031 222.005,357.031 219.922 C 357.031 217.682,357.075 217.578,358.008 217.578 C 358.724 217.578,358.984 217.370,358.984 216.797 C 358.984 216.276,359.245 216.016,359.766 216.016 C 360.286 216.016,360.547 215.755,360.547 215.234 C 360.547 214.714,360.807 214.453,361.328 214.453 C 361.849 214.453,362.109 214.193,362.109 213.672 C 362.109 213.151,362.370 212.891,362.891 212.891 C 363.577 212.891,363.672 212.630,363.672 210.742 L 363.672 208.594 362.109 208.594 L 360.547 208.594 360.547 210.742 M240.625 213.672 C 240.625 214.245,240.885 214.453,241.602 214.453 C 242.318 214.453,242.578 214.245,242.578 213.672 C 242.578 213.099,242.318 212.891,241.602 212.891 C 240.885 212.891,240.625 213.099,240.625 213.672 M235.938 216.797 C 235.938 217.318,236.198 217.578,236.719 217.578 C 237.240 217.578,237.500 217.318,237.500 216.797 C 237.500 216.276,237.240 216.016,236.719 216.016 C 236.198 216.016,235.938 216.276,235.938 216.797 M233.984 222.266 C 233.984 223.568,233.854 223.828,233.203 223.828 C 232.552 223.828,232.422 224.089,232.422 225.391 L 232.422 226.953 234.180 226.953 C 235.677 226.953,235.938 226.837,235.938 226.172 C 235.938 225.599,235.677 225.391,234.961 225.391 C 234.245 225.391,233.984 225.182,233.984 224.609 C 233.984 224.036,234.245 223.828,234.961 223.828 C 235.677 223.828,235.938 223.620,235.938 223.047 C 235.938 222.526,236.198 222.266,236.719 222.266 C 237.240 222.266,237.500 222.005,237.500 221.484 C 237.500 220.819,237.240 220.703,235.742 220.703 L 233.984 220.703 233.984 222.266 M104.297 231.445 L 104.297 235.938 102.734 235.938 L 101.172 235.938 101.172 238.281 C 101.172 240.365,101.259 240.625,101.953 240.625 C 102.604 240.625,102.734 240.365,102.734 239.063 L 102.734 237.500 104.492 237.500 L 106.250 237.500 106.250 232.813 C 106.250 228.385,106.293 228.125,107.031 228.125 C 107.465 228.125,107.813 227.865,107.813 227.539 C 107.813 227.105,107.357 226.953,106.055 226.953 L 104.297 226.953 104.297 231.445 M142.578 227.539 C 142.578 227.973,143.034 228.125,144.336 228.125 C 145.638 228.125,146.094 227.973,146.094 227.539 C 146.094 227.105,145.638 226.953,144.336 226.953 C 143.034 226.953,142.578 227.105,142.578 227.539 M229.297 227.539 C 229.297 227.865,229.644 228.125,230.078 228.125 C 230.512 228.125,230.859 227.865,230.859 227.539 C 230.859 227.214,230.512 226.953,230.078 226.953 C 229.644 226.953,229.297 227.214,229.297 227.539 M227.344 230.469 C 227.344 230.990,227.083 231.250,226.563 231.250 C 226.042 231.250,225.781 231.510,225.781 232.031 C 225.781 232.552,225.521 232.813,225.000 232.813 C 224.349 232.813,224.219 233.073,224.219 234.375 C 224.219 235.677,224.089 235.938,223.438 235.938 C 222.786 235.938,222.656 236.198,222.656 237.500 C 222.656 238.906,222.559 239.063,221.680 239.063 C 220.964 239.063,220.703 239.271,220.703 239.844 C 220.703 240.365,220.443 240.625,219.922 240.625 C 219.401 240.625,219.141 240.885,219.141 241.406 C 219.141 241.927,218.880 242.188,218.359 242.188 C 217.727 242.188,217.578 242.448,217.578 243.555 C 217.578 244.661,217.429 244.922,216.797 244.922 C 216.146 244.922,216.016 245.182,216.016 246.484 C 216.016 247.891,215.918 248.047,215.039 248.047 C 214.106 248.047,214.063 248.151,214.063 250.391 C 214.063 252.630,214.106 252.734,215.039 252.734 C 215.918 252.734,216.016 252.578,216.016 251.172 L 216.016 249.609 217.578 249.609 L 219.141 249.609 219.141 246.484 L 219.141 243.359 220.898 243.359 C 222.647 243.359,222.656 243.352,222.656 241.992 C 222.656 240.885,222.805 240.625,223.438 240.625 C 224.089 240.625,224.219 240.365,224.219 239.063 C 224.219 237.760,224.349 237.500,225.000 237.500 C 225.651 237.500,225.781 237.240,225.781 235.938 L 225.781 234.375 227.539 234.375 L 229.297 234.375 229.297 232.031 C 229.297 229.792,229.253 229.688,228.320 229.688 C 227.604 229.688,227.344 229.896,227.344 230.469 M101.172 233.594 C 101.172 234.115,101.432 234.375,101.953 234.375 C 102.474 234.375,102.734 234.115,102.734 233.594 C 102.734 233.073,102.474 232.813,101.953 232.813 C 101.432 232.813,101.172 233.073,101.172 233.594 M96.094 241.406 C 96.094 241.927,96.354 242.188,96.875 242.188 C 97.396 242.188,97.656 241.927,97.656 241.406 C 97.656 240.885,97.396 240.625,96.875 240.625 C 96.354 240.625,96.094 240.885,96.094 241.406 M99.609 245.117 L 99.609 248.047 97.852 248.047 L 96.094 248.047 96.094 249.609 C 96.094 250.911,95.964 251.172,95.313 251.172 C 94.792 251.172,94.531 251.432,94.531 251.953 C 94.531 252.474,94.271 252.734,93.750 252.734 C 93.056 252.734,92.969 252.995,92.969 255.078 L 92.969 257.422 90.430 257.422 L 87.891 257.422 87.891 258.789 L 87.891 260.156 85.352 260.156 L 82.813 260.156 82.813 261.719 L 82.813 263.281 79.492 263.281 L 76.172 263.281 76.172 264.844 L 76.172 266.406 66.992 266.406 C 58.073 266.406,57.813 266.428,57.813 267.188 C 57.813 267.839,57.552 267.969,56.250 267.969 C 54.948 267.969,54.688 267.839,54.688 267.188 C 54.688 266.522,54.427 266.406,52.930 266.406 C 51.432 266.406,51.172 266.522,51.172 267.188 C 51.172 267.839,50.911 267.969,49.609 267.969 L 48.047 267.969 48.047 269.531 C 48.047 270.938,47.949 271.094,47.070 271.094 C 46.137 271.094,46.094 270.990,46.094 268.750 L 46.094 266.406 38.672 266.406 C 31.510 266.406,31.250 266.434,31.250 267.188 C 31.250 267.934,31.510 267.969,37.109 267.969 L 42.969 267.969 42.969 270.313 L 42.969 272.656 52.148 272.656 C 61.068 272.656,61.328 272.634,61.328 271.875 C 61.328 271.354,61.589 271.094,62.109 271.094 C 62.760 271.094,62.891 270.833,62.891 269.531 L 62.891 267.969 70.313 267.969 L 77.734 267.969 77.734 266.406 L 77.734 264.844 81.055 264.844 L 84.375 264.844 84.375 263.281 L 84.375 261.719 86.914 261.719 L 89.453 261.719 89.453 260.352 C 89.453 258.992,89.462 258.984,91.211 258.984 C 92.708 258.984,92.969 258.869,92.969 258.203 C 92.969 257.682,93.229 257.422,93.750 257.422 C 94.271 257.422,94.531 257.161,94.531 256.641 C 94.531 256.120,94.792 255.859,95.313 255.859 C 95.964 255.859,96.094 255.599,96.094 254.297 C 96.094 252.995,96.224 252.734,96.875 252.734 C 97.526 252.734,97.656 252.474,97.656 251.172 L 97.656 249.609 99.414 249.609 L 101.172 249.609 101.172 245.898 C 101.172 242.448,101.117 242.188,100.391 242.188 C 99.679 242.188,99.609 242.448,99.609 245.117 M210.938 252.734 C 210.938 254.141,210.840 254.297,209.961 254.297 C 209.082 254.297,208.984 254.453,208.984 255.859 L 208.984 257.422 207.422 257.422 C 206.120 257.422,205.859 257.552,205.859 258.203 C 205.859 258.904,206.120 258.984,208.398 258.984 L 210.938 258.984 210.938 257.422 C 210.938 256.120,211.068 255.859,211.719 255.859 C 212.413 255.859,212.500 255.599,212.500 253.516 C 212.500 251.432,212.413 251.172,211.719 251.172 C 211.068 251.172,210.938 251.432,210.938 252.734 M89.453 255.078 C 89.453 255.599,89.714 255.859,90.234 255.859 C 90.755 255.859,91.016 255.599,91.016 255.078 C 91.016 254.557,90.755 254.297,90.234 254.297 C 89.714 254.297,89.453 254.557,89.453 255.078 M204.297 260.938 C 204.297 261.589,204.557 261.719,205.859 261.719 C 207.161 261.719,207.422 261.589,207.422 260.938 C 207.422 260.286,207.161 260.156,205.859 260.156 C 204.557 260.156,204.297 260.286,204.297 260.938 M202.344 264.063 C 202.344 264.728,202.604 264.844,204.102 264.844 C 205.599 264.844,205.859 264.728,205.859 264.063 C 205.859 263.397,205.599 263.281,204.102 263.281 C 202.604 263.281,202.344 263.397,202.344 264.063 M320.703 264.063 C 320.703 264.583,320.964 264.844,321.484 264.844 C 322.005 264.844,322.266 264.583,322.266 264.063 C 322.266 263.542,322.005 263.281,321.484 263.281 C 320.964 263.281,320.703 263.542,320.703 264.063 M199.219 268.750 C 199.219 270.833,199.132 271.094,198.438 271.094 C 197.786 271.094,197.656 271.354,197.656 272.656 C 197.656 274.063,197.559 274.219,196.680 274.219 C 195.824 274.219,195.703 274.388,195.703 275.586 C 195.703 276.693,195.554 276.953,194.922 276.953 C 194.401 276.953,194.141 277.214,194.141 277.734 C 194.141 278.255,193.880 278.516,193.359 278.516 C 192.839 278.516,192.578 278.776,192.578 279.297 C 192.578 279.818,192.318 280.078,191.797 280.078 C 191.102 280.078,191.016 280.339,191.016 282.422 C 191.016 284.661,190.972 284.766,190.039 284.766 C 189.323 284.766,189.063 284.974,189.063 285.547 C 189.063 286.068,188.802 286.328,188.281 286.328 C 187.760 286.328,187.500 286.589,187.500 287.109 C 187.500 287.760,187.240 287.891,185.938 287.891 C 184.412 287.891,184.375 287.923,184.375 289.258 C 184.375 290.456,184.254 290.625,183.398 290.625 C 182.520 290.625,182.422 290.781,182.422 292.188 L 182.422 293.750 180.859 293.750 L 179.297 293.750 179.297 296.094 C 179.297 298.177,179.210 298.438,178.516 298.438 C 177.865 298.438,177.734 298.698,177.734 300.000 C 177.734 301.406,177.637 301.563,176.758 301.563 C 175.879 301.563,175.781 301.719,175.781 303.125 L 175.781 304.688 174.219 304.688 C 172.693 304.688,172.656 304.720,172.656 306.055 C 172.656 307.161,172.507 307.422,171.875 307.422 C 171.224 307.422,171.094 307.682,171.094 308.984 C 171.094 310.391,170.996 310.547,170.117 310.547 C 169.238 310.547,169.141 310.703,169.141 312.109 L 169.141 313.672 167.578 313.672 L 166.016 313.672 166.016 315.234 C 166.016 316.536,165.885 316.797,165.234 316.797 C 164.523 316.797,164.453 317.057,164.453 319.727 L 164.453 322.656 162.695 322.656 L 160.938 322.656 160.938 324.219 C 160.938 325.521,160.807 325.781,160.156 325.781 C 159.505 325.781,159.375 326.042,159.375 327.344 C 159.375 328.646,159.245 328.906,158.594 328.906 C 157.943 328.906,157.813 329.167,157.813 330.469 L 157.813 332.031 156.055 332.031 C 154.557 332.031,154.297 332.147,154.297 332.813 C 154.297 333.333,154.036 333.594,153.516 333.594 C 152.995 333.594,152.734 333.854,152.734 334.375 C 152.734 334.896,152.474 335.156,151.953 335.156 C 151.321 335.156,151.172 335.417,151.172 336.523 C 151.172 337.721,151.051 337.891,150.195 337.891 C 149.316 337.891,149.219 338.047,149.219 339.453 L 149.219 341.016 147.656 341.016 L 146.094 341.016 146.094 342.578 C 146.094 343.984,145.996 344.141,145.117 344.141 C 144.184 344.141,144.141 344.245,144.141 346.484 L 144.141 348.828 142.578 348.828 L 141.016 348.828 141.016 350.977 C 141.016 352.865,140.921 353.125,140.234 353.125 C 139.583 353.125,139.453 353.385,139.453 354.688 C 139.453 356.094,139.355 356.250,138.477 356.250 C 137.598 356.250,137.500 356.406,137.500 357.813 C 137.500 359.219,137.598 359.375,138.477 359.375 C 139.193 359.375,139.453 359.167,139.453 358.594 C 139.453 358.073,139.714 357.813,140.234 357.813 C 140.929 357.813,141.016 357.552,141.016 355.469 C 141.016 353.385,141.102 353.125,141.797 353.125 C 142.429 353.125,142.578 352.865,142.578 351.758 C 142.578 350.651,142.727 350.391,143.359 350.391 C 143.793 350.391,144.141 350.651,144.141 350.977 C 144.141 351.341,144.510 351.563,145.117 351.563 C 146.072 351.563,146.094 351.497,146.094 348.633 C 146.094 345.964,146.163 345.703,146.875 345.703 C 147.526 345.703,147.656 345.443,147.656 344.141 L 147.656 342.578 149.414 342.578 L 151.172 342.578 151.172 341.016 C 151.172 339.714,151.302 339.453,151.953 339.453 C 152.604 339.453,152.734 339.193,152.734 337.891 C 152.734 336.589,152.865 336.328,153.516 336.328 C 154.148 336.328,154.297 336.068,154.297 334.961 L 154.297 333.594 156.836 333.594 L 159.375 333.594 159.375 332.031 C 159.375 330.729,159.505 330.469,160.156 330.469 C 160.807 330.469,160.938 330.208,160.938 328.906 C 160.938 327.604,161.068 327.344,161.719 327.344 C 162.370 327.344,162.500 327.083,162.500 325.781 L 162.500 324.219 164.258 324.219 L 166.016 324.219 166.016 321.289 C 166.016 318.620,166.085 318.359,166.797 318.359 C 167.448 318.359,167.578 318.099,167.578 316.797 L 167.578 315.234 169.336 315.234 L 171.094 315.234 171.094 313.672 C 171.094 312.370,171.224 312.109,171.875 312.109 C 172.526 312.109,172.656 311.849,172.656 310.547 C 172.656 309.245,172.786 308.984,173.438 308.984 C 174.089 308.984,174.219 308.724,174.219 307.422 L 174.219 305.859 175.977 305.859 C 177.279 305.859,177.734 305.707,177.734 305.273 C 177.734 304.948,178.082 304.688,178.516 304.688 C 179.210 304.688,179.297 304.427,179.297 302.344 C 179.297 300.260,179.384 300.000,180.078 300.000 C 180.773 300.000,180.859 299.740,180.859 297.656 L 180.859 295.313 182.617 295.313 L 184.375 295.313 184.375 293.750 C 184.375 292.448,184.505 292.188,185.156 292.188 C 185.789 292.188,185.938 291.927,185.938 290.820 L 185.938 289.453 188.477 289.453 L 191.016 289.453 191.016 287.891 L 191.016 286.328 192.578 286.328 L 194.141 286.328 194.141 283.984 C 194.141 281.901,194.227 281.641,194.922 281.641 C 195.443 281.641,195.703 281.380,195.703 280.859 C 195.703 280.286,195.964 280.078,196.680 280.078 C 197.559 280.078,197.656 279.922,197.656 278.516 C 197.656 277.214,197.786 276.953,198.438 276.953 C 199.124 276.953,199.219 276.693,199.219 274.805 L 199.219 272.656 201.758 272.656 C 204.036 272.656,204.297 272.576,204.297 271.875 C 204.297 271.302,204.036 271.094,203.320 271.094 C 202.441 271.094,202.344 270.938,202.344 269.531 C 202.344 268.125,202.441 267.969,203.320 267.969 C 204.036 267.969,204.297 267.760,204.297 267.188 C 204.297 266.486,204.036 266.406,201.758 266.406 L 199.219 266.406 199.219 268.750 M54.688 269.531 L 54.688 271.094 52.930 271.094 L 51.172 271.094 51.172 269.531 L 51.172 267.969 52.930 267.969 L 54.688 267.969 54.688 269.531 M294.141 302.344 C 294.141 302.865,294.401 303.125,294.922 303.125 C 295.443 303.125,295.703 302.865,295.703 302.344 C 295.703 301.823,295.443 301.563,294.922 301.563 C 294.401 301.563,294.141 301.823,294.141 302.344 " stroke="none" fill="#cb1c04" fill-rule="evenodd"></path></g></svg>